G04*
G04 #@! TF.GenerationSoftware,Altium Limited,Altium Designer,23.1.1 (15)*
G04*
G04 Layer_Color=16711935*
%FSLAX25Y25*%
%MOIN*%
G70*
G04*
G04 #@! TF.SameCoordinates,0BDBEAC4-C0BD-4DD4-8220-68B77C2E4246*
G04*
G04*
G04 #@! TF.FilePolarity,Positive*
G04*
G01*
G75*
%ADD11C,0.00787*%
D11*
X180445Y159312D02*
X195012D01*
X180445Y148288D02*
Y159312D01*
Y148288D02*
X195012D01*
Y159312D01*
X180248Y133702D02*
X194815D01*
Y144725D01*
X180248D02*
X194815D01*
X180248Y133702D02*
Y144725D01*
X161680Y91133D02*
X174278D01*
X161680Y84834D02*
Y91133D01*
Y84834D02*
X174278D01*
Y91133D01*
X178658Y84834D02*
X191256D01*
Y91133D01*
X178658D02*
X191256D01*
X178658Y84834D02*
Y91133D01*
X172482Y50999D02*
X179175D01*
Y54542D01*
X172482D02*
X179175D01*
X172482Y50999D02*
Y54542D01*
X153555Y44172D02*
X160248D01*
X153555Y40628D02*
Y44172D01*
Y40628D02*
X160248D01*
Y44172D01*
X153457Y37671D02*
X160150D01*
X153457Y34127D02*
Y37671D01*
Y34127D02*
X160150D01*
Y37671D01*
X153358Y29624D02*
X160051D01*
X153358Y26081D02*
Y29624D01*
Y26081D02*
X160051D01*
Y29624D01*
X153255Y18403D02*
X159948D01*
Y21947D01*
X153255D02*
X159948D01*
X153255Y18403D02*
Y21947D01*
X170182Y154927D02*
Y160636D01*
X161481Y154927D02*
X170182D01*
X161481D02*
Y160636D01*
X170182D01*
X182391Y174275D02*
X193809D01*
Y169157D02*
Y174275D01*
X182391Y169157D02*
X193809D01*
X182391D02*
Y174275D01*
X159695Y169254D02*
X171505D01*
X159695D02*
Y175946D01*
X171505D01*
Y169254D02*
Y175946D01*
X192955Y25572D02*
Y29115D01*
X199648D01*
Y25572D02*
Y29115D01*
X192955Y25572D02*
X199648D01*
M02*
