G04*
G04 #@! TF.GenerationSoftware,Altium Limited,Altium Designer,23.1.1 (15)*
G04*
G04 Layer_Physical_Order=2*
G04 Layer_Color=16711680*
%FSLAX25Y25*%
%MOIN*%
G70*
G04*
G04 #@! TF.SameCoordinates,7F6F0EF6-604E-4872-8498-859B9B4CD440*
G04*
G04*
G04 #@! TF.FilePolarity,Positive*
G04*
G01*
G75*
%ADD12C,0.01000*%
%ADD13R,0.05567X0.05567*%
%ADD14C,0.05567*%
%ADD19C,0.02000*%
%ADD20R,0.07677X0.07677*%
%ADD21C,0.07677*%
%ADD22C,0.06000*%
%ADD23C,0.02000*%
%ADD24R,0.03937X0.09843*%
%ADD25R,0.29528X0.11811*%
%ADD26R,0.04352X0.06528*%
%ADD27R,0.03150X0.03150*%
%ADD28R,0.02362X0.04331*%
%ADD29R,0.03543X0.03150*%
%ADD30R,0.03937X0.04921*%
G04:AMPARAMS|DCode=31|XSize=65.3mil|YSize=24.68mil|CornerRadius=12.34mil|HoleSize=0mil|Usage=FLASHONLY|Rotation=270.000|XOffset=0mil|YOffset=0mil|HoleType=Round|Shape=RoundedRectangle|*
%AMROUNDEDRECTD31*
21,1,0.06530,0.00000,0,0,270.0*
21,1,0.04063,0.02468,0,0,270.0*
1,1,0.02468,0.00000,-0.02031*
1,1,0.02468,0.00000,0.02031*
1,1,0.02468,0.00000,0.02031*
1,1,0.02468,0.00000,-0.02031*
%
%ADD31ROUNDEDRECTD31*%
%ADD32R,0.02468X0.06530*%
%ADD33R,0.02756X0.03937*%
%ADD34R,0.02362X0.03150*%
G36*
X223800Y233300D02*
Y3000D01*
X128400D01*
X128100Y3124D01*
X128100Y233600D01*
X223500D01*
X223800Y233300D01*
D02*
G37*
%LPC*%
G36*
X218127Y231000D02*
X217073D01*
X216056Y230727D01*
X215144Y230201D01*
X214399Y229456D01*
X213873Y228544D01*
X213600Y227527D01*
Y226473D01*
X213873Y225456D01*
X214399Y224544D01*
X215144Y223799D01*
X216056Y223273D01*
X217073Y223000D01*
X218127D01*
X219144Y223273D01*
X220056Y223799D01*
X220801Y224544D01*
X221327Y225456D01*
X221600Y226473D01*
Y227527D01*
X221327Y228544D01*
X220801Y229456D01*
X220056Y230201D01*
X219144Y230727D01*
X218127Y231000D01*
D02*
G37*
G36*
X135027D02*
X133973D01*
X132956Y230727D01*
X132044Y230201D01*
X131299Y229456D01*
X130773Y228544D01*
X130500Y227527D01*
Y226473D01*
X130773Y225456D01*
X131299Y224544D01*
X132044Y223799D01*
X132956Y223273D01*
X133973Y223000D01*
X135027D01*
X136044Y223273D01*
X136956Y223799D01*
X137701Y224544D01*
X138227Y225456D01*
X138500Y226473D01*
Y227527D01*
X138227Y228544D01*
X137701Y229456D01*
X136956Y230201D01*
X136044Y230727D01*
X135027Y231000D01*
D02*
G37*
G36*
X192309Y222481D02*
X192172D01*
Y218143D01*
X196510D01*
Y218280D01*
X196181Y219510D01*
X195544Y220614D01*
X194643Y221514D01*
X193539Y222151D01*
X192309Y222481D01*
D02*
G37*
G36*
X191172D02*
X191035D01*
X189804Y222151D01*
X188701Y221514D01*
X187800Y220614D01*
X187163Y219510D01*
X186833Y218280D01*
Y218143D01*
X191172D01*
Y222481D01*
D02*
G37*
G36*
X196510Y217143D02*
X192172D01*
Y212804D01*
X192309D01*
X193539Y213134D01*
X194643Y213771D01*
X195544Y214671D01*
X196181Y215775D01*
X196510Y217005D01*
Y217143D01*
D02*
G37*
G36*
X191172D02*
X186833D01*
Y217005D01*
X187163Y215775D01*
X187800Y214671D01*
X188701Y213771D01*
X189804Y213134D01*
X191035Y212804D01*
X191172D01*
Y217143D01*
D02*
G37*
G36*
X159415Y222481D02*
X158141D01*
X156911Y222151D01*
X155807Y221514D01*
X154907Y220614D01*
X154270Y219510D01*
X153940Y218280D01*
Y217005D01*
X154270Y215775D01*
X154907Y214671D01*
X155807Y213771D01*
X156911Y213134D01*
X158141Y212804D01*
X159415D01*
X160455Y213082D01*
X177022Y196516D01*
X177683Y196073D01*
X178463Y195918D01*
X186833D01*
Y193119D01*
X196510D01*
Y202796D01*
X186833D01*
Y199997D01*
X179308D01*
X163338Y215966D01*
X163617Y217005D01*
Y218280D01*
X163287Y219510D01*
X162650Y220614D01*
X161749Y221514D01*
X160646Y222151D01*
X159415Y222481D01*
D02*
G37*
G36*
X161360Y179897D02*
X159482D01*
Y177429D01*
X161360D01*
Y179897D01*
D02*
G37*
G36*
X192202Y179771D02*
Y176061D01*
X193980D01*
Y177593D01*
X193807Y178464D01*
X193313Y179203D01*
X192574Y179697D01*
X192202Y179771D01*
D02*
G37*
G36*
X193980Y175062D02*
X192202D01*
Y171352D01*
X192574Y171426D01*
X193313Y171920D01*
X193807Y172659D01*
X193980Y173530D01*
Y175062D01*
D02*
G37*
G36*
X149435Y169949D02*
X141868D01*
Y162382D01*
X149435D01*
Y169949D01*
D02*
G37*
G36*
X163617Y202796D02*
X153940D01*
Y193119D01*
X163617D01*
Y196428D01*
X168246D01*
X184386Y180289D01*
X184195Y179827D01*
X182264D01*
Y171296D01*
X182968D01*
Y166119D01*
X178152Y161303D01*
X177690Y161495D01*
Y172600D01*
X177651Y172797D01*
Y172998D01*
X177574Y173183D01*
X177535Y173380D01*
X177424Y173547D01*
X177347Y173733D01*
X177205Y173875D01*
X177093Y174042D01*
X176926Y174153D01*
X176784Y174295D01*
X176599Y174372D01*
X176432Y174484D01*
X176235Y174523D01*
X176049Y174600D01*
X175848D01*
X175651Y174639D01*
X175454Y174600D01*
X175253D01*
X175068Y174523D01*
X174871Y174484D01*
X174704Y174372D01*
X174518Y174295D01*
X174376Y174153D01*
X174209Y174042D01*
X174164Y173974D01*
X173698Y174022D01*
X173603Y174087D01*
X173300Y174542D01*
X171718Y176123D01*
Y179897D01*
X162360D01*
Y176929D01*
X161860D01*
Y176429D01*
X159482D01*
Y173960D01*
X159482Y173960D01*
X159482D01*
X159437Y173479D01*
X155722Y169764D01*
X155390Y169268D01*
X155274Y168682D01*
Y162637D01*
Y133588D01*
X155390Y133003D01*
X155722Y132507D01*
X156928Y131301D01*
X157424Y130970D01*
X158009Y130853D01*
X160280D01*
X160736Y130748D01*
Y116937D01*
X189569D01*
X189760Y116475D01*
X189149Y115864D01*
X160822D01*
X160237Y115748D01*
X159741Y115416D01*
X159155Y114831D01*
X158823Y114334D01*
X158707Y113749D01*
Y107318D01*
X149408Y98019D01*
X148912Y98084D01*
X148679Y98488D01*
X147974Y99193D01*
X147112Y99691D01*
X146149Y99949D01*
X145153D01*
X144191Y99691D01*
X143328Y99193D01*
X142624Y98488D01*
X142126Y97626D01*
X141868Y96663D01*
Y95667D01*
X142126Y94705D01*
X142624Y93842D01*
X143328Y93138D01*
X144191Y92640D01*
X145153Y92382D01*
X146149D01*
X147112Y92640D01*
X147974Y93138D01*
X148679Y93842D01*
X149137Y94636D01*
X149717D01*
X150303Y94752D01*
X150799Y95084D01*
X160274Y104559D01*
X160736Y104368D01*
Y97252D01*
X174461D01*
Y96423D01*
X160635D01*
X159451Y97607D01*
X159284Y97719D01*
X159142Y97861D01*
X158956Y97938D01*
X158789Y98049D01*
X158592Y98089D01*
X158407Y98165D01*
X158206D01*
X158009Y98204D01*
X157812Y98165D01*
X157611D01*
X157425Y98089D01*
X157229Y98049D01*
X157062Y97938D01*
X156876Y97861D01*
X156734Y97719D01*
X156567Y97607D01*
X156455Y97440D01*
X156313Y97298D01*
X156237Y97113D01*
X156125Y96946D01*
X156086Y96749D01*
X156009Y96563D01*
Y96362D01*
X155970Y96165D01*
X156009Y95968D01*
Y95767D01*
X156086Y95582D01*
X156125Y95385D01*
X156237Y95218D01*
X156313Y95032D01*
X156455Y94890D01*
X156567Y94723D01*
X158349Y92942D01*
X159010Y92500D01*
X159354Y92431D01*
X159778Y92248D01*
X159778Y91850D01*
Y88484D01*
X162954D01*
X166130D01*
Y91845D01*
X166130Y92248D01*
X166590Y92345D01*
X169368D01*
X169828Y92248D01*
Y83719D01*
X173082D01*
X173274Y83258D01*
X167255Y77239D01*
X166100D01*
X165903Y77200D01*
X165702D01*
X165517Y77123D01*
X165320Y77084D01*
X165153Y76972D01*
X164967Y76895D01*
X164825Y76753D01*
X164658Y76642D01*
X164547Y76475D01*
X164404Y76333D01*
X164328Y76147D01*
X164216Y75980D01*
X164177Y75783D01*
X164100Y75598D01*
Y75397D01*
X164061Y75200D01*
X164100Y75003D01*
Y74802D01*
X164177Y74617D01*
X164216Y74420D01*
X164328Y74253D01*
X164404Y74067D01*
X164547Y73925D01*
X164658Y73758D01*
X164825Y73646D01*
X164967Y73505D01*
X165153Y73428D01*
X165320Y73316D01*
X165517Y73277D01*
X165702Y73200D01*
X165903D01*
X166100Y73161D01*
X168100D01*
X168880Y73316D01*
X169542Y73758D01*
X177942Y82158D01*
X178384Y82820D01*
X178539Y83600D01*
Y83719D01*
X183108D01*
Y92248D01*
X178539D01*
Y97252D01*
X192264D01*
Y111063D01*
X161766D01*
Y112805D01*
X189783D01*
X190368Y112922D01*
X190864Y113253D01*
X194037Y116426D01*
X194368Y116922D01*
X194484Y117507D01*
Y130178D01*
X194368Y130763D01*
X194037Y131260D01*
X192966Y132329D01*
X192470Y132661D01*
X191885Y132777D01*
X181680D01*
X181670Y132792D01*
X181938Y133292D01*
X184595D01*
Y142251D01*
X190352Y148009D01*
X190665Y147879D01*
Y147879D01*
X196602D01*
Y154009D01*
X205013Y162419D01*
X205153Y162382D01*
X206149D01*
X207112Y162640D01*
X207974Y163138D01*
X208679Y163842D01*
X209177Y164705D01*
X209435Y165667D01*
Y166663D01*
X209177Y167626D01*
X208679Y168488D01*
X207974Y169193D01*
X207112Y169691D01*
X206149Y169949D01*
X205153D01*
X204191Y169691D01*
X203328Y169193D01*
X202624Y168488D01*
X202126Y167626D01*
X201868Y166663D01*
Y165667D01*
X202000Y165174D01*
X196547Y159721D01*
X193520D01*
X192946Y160105D01*
X192165Y160260D01*
X188150D01*
X186399Y162012D01*
X186232Y162123D01*
X186090Y162265D01*
X185904Y162342D01*
X185737Y162454D01*
X185540Y162493D01*
X185355Y162570D01*
X185154D01*
X184957Y162609D01*
X184760Y162570D01*
X184559D01*
X184374Y162493D01*
X184129Y162954D01*
X185579Y164404D01*
X185675Y164548D01*
X186276D01*
X186489Y164229D01*
X187228Y163735D01*
X188100Y163562D01*
X188972Y163735D01*
X189710Y164229D01*
X190204Y164968D01*
X190378Y165840D01*
Y169902D01*
X190204Y170774D01*
X189842Y171316D01*
X189885Y171456D01*
X190472Y171665D01*
X190831Y171426D01*
X191202Y171352D01*
Y175561D01*
Y179771D01*
X190831Y179697D01*
X190092Y179203D01*
X190057Y179151D01*
X189526Y179257D01*
X189513Y179323D01*
X189181Y179819D01*
X169961Y199039D01*
X169465Y199371D01*
X168880Y199487D01*
X163617D01*
Y202796D01*
D02*
G37*
G36*
X206151Y159948D02*
Y156665D01*
X209434D01*
X209177Y157626D01*
X208679Y158488D01*
X207974Y159193D01*
X207112Y159691D01*
X206151Y159948D01*
D02*
G37*
G36*
X205151D02*
X204191Y159691D01*
X203328Y159193D01*
X202624Y158488D01*
X202126Y157626D01*
X201868Y156665D01*
X205151D01*
Y159948D01*
D02*
G37*
G36*
X209434Y155665D02*
X206151D01*
Y152382D01*
X207112Y152640D01*
X207974Y153138D01*
X208679Y153842D01*
X209177Y154705D01*
X209434Y155665D01*
D02*
G37*
G36*
X205151D02*
X201868D01*
X202126Y154705D01*
X202624Y153842D01*
X203328Y153138D01*
X204191Y152640D01*
X205151Y152382D01*
Y155665D01*
D02*
G37*
G36*
X146149Y159949D02*
X145153D01*
X144191Y159691D01*
X143328Y159193D01*
X142624Y158488D01*
X142126Y157626D01*
X141868Y156663D01*
Y155667D01*
X142126Y154705D01*
X142624Y153842D01*
X143328Y153138D01*
X144191Y152640D01*
X145153Y152382D01*
X146149D01*
X147112Y152640D01*
X147974Y153138D01*
X148679Y153842D01*
X149177Y154705D01*
X149435Y155667D01*
Y156663D01*
X149177Y157626D01*
X148679Y158488D01*
X147974Y159193D01*
X147112Y159691D01*
X146149Y159949D01*
D02*
G37*
G36*
X206149Y149949D02*
X205153D01*
X204191Y149691D01*
X203328Y149193D01*
X202624Y148488D01*
X202126Y147626D01*
X201868Y146663D01*
Y145667D01*
X202126Y144705D01*
X202624Y143842D01*
X203328Y143138D01*
X204191Y142640D01*
X205153Y142382D01*
X206149D01*
X207112Y142640D01*
X207974Y143138D01*
X208679Y143842D01*
X209177Y144705D01*
X209435Y145667D01*
Y146663D01*
X209177Y147626D01*
X208679Y148488D01*
X207974Y149193D01*
X207112Y149691D01*
X206149Y149949D01*
D02*
G37*
G36*
X146149D02*
X145153D01*
X144191Y149691D01*
X143328Y149193D01*
X142624Y148488D01*
X142126Y147626D01*
X141868Y146663D01*
Y145667D01*
X142126Y144705D01*
X142624Y143842D01*
X143328Y143138D01*
X144191Y142640D01*
X145153Y142382D01*
X146149D01*
X147112Y142640D01*
X147974Y143138D01*
X148679Y143842D01*
X149177Y144705D01*
X149435Y145667D01*
Y146663D01*
X149177Y147626D01*
X148679Y148488D01*
X147974Y149193D01*
X147112Y149691D01*
X146149Y149949D01*
D02*
G37*
G36*
X196405Y145135D02*
X193937D01*
Y139714D01*
X196405D01*
Y145135D01*
D02*
G37*
G36*
X192937D02*
X190469D01*
Y139714D01*
X192937D01*
Y145135D01*
D02*
G37*
G36*
X146151Y139948D02*
Y136665D01*
X149434D01*
X149177Y137626D01*
X148679Y138488D01*
X147974Y139193D01*
X147112Y139691D01*
X146151Y139948D01*
D02*
G37*
G36*
X145151D02*
X144191Y139691D01*
X143328Y139193D01*
X142624Y138488D01*
X142126Y137626D01*
X141868Y136665D01*
X145151D01*
Y139948D01*
D02*
G37*
G36*
X196405Y138714D02*
X193937D01*
Y133292D01*
X196405D01*
Y138714D01*
D02*
G37*
G36*
X192937D02*
X190469D01*
Y133292D01*
X192937D01*
Y138714D01*
D02*
G37*
G36*
X149434Y135665D02*
X146151D01*
Y132382D01*
X147112Y132640D01*
X147974Y133138D01*
X148679Y133842D01*
X149177Y134705D01*
X149434Y135665D01*
D02*
G37*
G36*
X145151D02*
X141868D01*
X142126Y134705D01*
X142624Y133842D01*
X143328Y133138D01*
X144191Y132640D01*
X145151Y132382D01*
Y135665D01*
D02*
G37*
G36*
X206149Y139949D02*
X205153D01*
X204191Y139691D01*
X203328Y139193D01*
X202624Y138488D01*
X202126Y137626D01*
X201868Y136663D01*
Y135667D01*
X202126Y134705D01*
X202624Y133842D01*
X203328Y133138D01*
X204191Y132640D01*
X205153Y132382D01*
X206149D01*
X207112Y132640D01*
X207974Y133138D01*
X208679Y133842D01*
X209177Y134705D01*
X209435Y135667D01*
Y136663D01*
X209177Y137626D01*
X208679Y138488D01*
X207974Y139193D01*
X207112Y139691D01*
X206149Y139949D01*
D02*
G37*
G36*
Y129949D02*
X205153D01*
X204191Y129691D01*
X203328Y129193D01*
X202624Y128488D01*
X202126Y127626D01*
X201868Y126663D01*
Y125667D01*
X202126Y124705D01*
X202624Y123842D01*
X203328Y123138D01*
X204191Y122640D01*
X205153Y122382D01*
X206149D01*
X207112Y122640D01*
X207974Y123138D01*
X208679Y123842D01*
X209177Y124705D01*
X209435Y125667D01*
Y126663D01*
X209177Y127626D01*
X208679Y128488D01*
X207974Y129193D01*
X207112Y129691D01*
X206149Y129949D01*
D02*
G37*
G36*
X146149D02*
X145153D01*
X144191Y129691D01*
X143328Y129193D01*
X142624Y128488D01*
X142126Y127626D01*
X141868Y126663D01*
Y125667D01*
X142126Y124705D01*
X142624Y123842D01*
X143328Y123138D01*
X144191Y122640D01*
X145153Y122382D01*
X146149D01*
X147112Y122640D01*
X147974Y123138D01*
X148679Y123842D01*
X149177Y124705D01*
X149435Y125667D01*
Y126663D01*
X149177Y127626D01*
X148679Y128488D01*
X147974Y129193D01*
X147112Y129691D01*
X146149Y129949D01*
D02*
G37*
G36*
X206149Y119949D02*
X205153D01*
X204191Y119691D01*
X203328Y119193D01*
X202624Y118488D01*
X202126Y117626D01*
X201868Y116663D01*
Y115667D01*
X202126Y114705D01*
X202624Y113842D01*
X203328Y113138D01*
X204191Y112640D01*
X205153Y112382D01*
X206149D01*
X207112Y112640D01*
X207974Y113138D01*
X208679Y113842D01*
X209177Y114705D01*
X209435Y115667D01*
Y116663D01*
X209177Y117626D01*
X208679Y118488D01*
X207974Y119193D01*
X207112Y119691D01*
X206149Y119949D01*
D02*
G37*
G36*
X146149D02*
X145153D01*
X144191Y119691D01*
X143328Y119193D01*
X142624Y118488D01*
X142126Y117626D01*
X141868Y116663D01*
Y115667D01*
X142126Y114705D01*
X142624Y113842D01*
X143328Y113138D01*
X144191Y112640D01*
X145153Y112382D01*
X146149D01*
X147112Y112640D01*
X147974Y113138D01*
X148679Y113842D01*
X149177Y114705D01*
X149435Y115667D01*
Y116663D01*
X149177Y117626D01*
X148679Y118488D01*
X147974Y119193D01*
X147112Y119691D01*
X146149Y119949D01*
D02*
G37*
G36*
X206149Y109949D02*
X205153D01*
X204191Y109691D01*
X203328Y109193D01*
X202624Y108488D01*
X202126Y107626D01*
X201868Y106663D01*
Y105667D01*
X202105Y104782D01*
X198026Y100703D01*
X197694Y100206D01*
X197578Y99621D01*
Y71241D01*
X182349Y56012D01*
X182018Y55516D01*
X181901Y54931D01*
Y38473D01*
X181439Y38282D01*
X176240Y43481D01*
X175743Y43813D01*
X175158Y43929D01*
X163020D01*
Y44975D01*
X157476D01*
Y39825D01*
X163020D01*
Y40871D01*
X174525D01*
X181901Y33494D01*
Y32002D01*
X181250D01*
Y28466D01*
X180750Y28198D01*
X180691Y28238D01*
Y32002D01*
X176328D01*
Y25671D01*
X178528D01*
X180109Y24090D01*
X180142Y24068D01*
X180448Y23721D01*
X180338Y23340D01*
X180248Y23340D01*
X176328D01*
Y19576D01*
X176269Y19537D01*
X176011Y19675D01*
X171407D01*
Y18039D01*
X170848D01*
Y23340D01*
X170181D01*
X170080Y23847D01*
X169748Y24343D01*
X168920Y25171D01*
X169128Y25671D01*
X170848D01*
Y29207D01*
X171348Y29474D01*
X171407Y29435D01*
Y25671D01*
X175769D01*
Y32002D01*
X173570D01*
X168591Y36980D01*
X168095Y37312D01*
X167510Y37428D01*
X162921D01*
Y38474D01*
X157378D01*
Y33324D01*
X162921D01*
Y34370D01*
X166876D01*
X168782Y32464D01*
X168591Y32002D01*
X166486D01*
Y29381D01*
X162823D01*
Y30427D01*
X157280D01*
Y25277D01*
X162823D01*
Y25277D01*
X163191Y25430D01*
X165197Y23424D01*
X165693Y23093D01*
X166278Y22976D01*
X166486D01*
Y18039D01*
X164444D01*
X162720Y19763D01*
Y22750D01*
X157176D01*
Y19267D01*
X156714Y19075D01*
X156027Y19763D01*
Y22750D01*
X155294D01*
Y25277D01*
X156130D01*
Y30427D01*
X155294D01*
Y33324D01*
X156228D01*
Y38474D01*
X155294D01*
Y39825D01*
X156327D01*
Y44975D01*
X155594D01*
Y61809D01*
X159451Y65665D01*
X159562Y65832D01*
X159704Y65974D01*
X159781Y66160D01*
X159893Y66327D01*
X159932Y66524D01*
X160009Y66709D01*
Y66910D01*
X160048Y67107D01*
X160009Y67304D01*
Y67505D01*
X159932Y67690D01*
X159893Y67887D01*
X159781Y68054D01*
X159704Y68240D01*
X159562Y68382D01*
X159451Y68549D01*
X159284Y68661D01*
X159142Y68803D01*
X158956Y68879D01*
X158789Y68991D01*
X158592Y69030D01*
X158407Y69107D01*
X158206D01*
X158009Y69146D01*
X157812Y69107D01*
X157611D01*
X157425Y69030D01*
X157229Y68991D01*
X157062Y68879D01*
X156876Y68803D01*
X156734Y68661D01*
X156567Y68549D01*
X152113Y64095D01*
X151671Y63434D01*
X151516Y62653D01*
Y44975D01*
X150784D01*
Y39825D01*
X151216D01*
Y38474D01*
X150685D01*
Y33324D01*
X151216D01*
Y30427D01*
X150587D01*
Y25277D01*
X151216D01*
Y22750D01*
X150484D01*
Y17600D01*
X153864D01*
X158036Y13428D01*
X158532Y13097D01*
X159117Y12980D01*
X195010D01*
X195595Y13097D01*
X196091Y13428D01*
X200729Y18067D01*
X201061Y18563D01*
X201177Y19148D01*
Y24769D01*
X202108D01*
X202126Y24705D01*
X202624Y23842D01*
X203328Y23138D01*
X204191Y22640D01*
X205153Y22382D01*
X206149D01*
X207112Y22640D01*
X207974Y23138D01*
X208679Y23842D01*
X209177Y24705D01*
X209435Y25667D01*
Y26664D01*
X209177Y27626D01*
X208679Y28488D01*
X207974Y29193D01*
X207112Y29691D01*
X206149Y29949D01*
X205153D01*
X204191Y29691D01*
X203328Y29193D01*
X202920Y28784D01*
X202420Y28992D01*
Y29918D01*
X196876D01*
Y24769D01*
X198119D01*
Y19782D01*
X194376Y16039D01*
X178174D01*
X177983Y16501D01*
X178491Y17010D01*
X180691D01*
X180691Y22781D01*
X181071Y23139D01*
X181191Y23166D01*
X181250Y23121D01*
Y17010D01*
X185612D01*
Y23207D01*
X185612Y23340D01*
X185813Y23757D01*
X185818Y23758D01*
X186315Y24090D01*
X188281Y26056D01*
X188613Y26553D01*
X188729Y27138D01*
Y28556D01*
X189191Y28748D01*
X190183Y27755D01*
Y24769D01*
X195727D01*
Y29918D01*
X192346D01*
X190261Y32004D01*
X189765Y32335D01*
X189180Y32452D01*
X188729D01*
Y52566D01*
X201451Y65289D01*
X202009Y65139D01*
X202126Y64705D01*
X202624Y63842D01*
X203328Y63138D01*
X204191Y62640D01*
X205153Y62382D01*
X206149D01*
X207112Y62640D01*
X207974Y63138D01*
X208679Y63842D01*
X209177Y64705D01*
X209435Y65667D01*
Y66663D01*
X209177Y67626D01*
X208679Y68489D01*
X207974Y69193D01*
X207112Y69691D01*
X206149Y69949D01*
X205153D01*
X204191Y69691D01*
X203328Y69193D01*
X203098Y68963D01*
X202636Y69155D01*
Y73176D01*
X203098Y73368D01*
X203328Y73138D01*
X204191Y72640D01*
X205153Y72382D01*
X206149D01*
X207112Y72640D01*
X207974Y73138D01*
X208679Y73842D01*
X209177Y74705D01*
X209435Y75667D01*
Y76664D01*
X209177Y77626D01*
X208679Y78488D01*
X207974Y79193D01*
X207112Y79691D01*
X206149Y79949D01*
X205153D01*
X204191Y79691D01*
X203328Y79193D01*
X203098Y78963D01*
X202636Y79154D01*
Y83176D01*
X203098Y83368D01*
X203328Y83138D01*
X204191Y82640D01*
X205153Y82382D01*
X206149D01*
X207112Y82640D01*
X207974Y83138D01*
X208679Y83842D01*
X209177Y84705D01*
X209435Y85667D01*
Y86664D01*
X209177Y87626D01*
X208679Y88489D01*
X207974Y89193D01*
X207112Y89691D01*
X206149Y89949D01*
X205153D01*
X204191Y89691D01*
X203328Y89193D01*
X203098Y88963D01*
X202636Y89154D01*
Y93176D01*
X203098Y93367D01*
X203328Y93138D01*
X204191Y92640D01*
X205153Y92382D01*
X206149D01*
X207112Y92640D01*
X207974Y93138D01*
X208679Y93842D01*
X209177Y94705D01*
X209435Y95667D01*
Y96663D01*
X209177Y97626D01*
X208679Y98488D01*
X207974Y99193D01*
X207112Y99691D01*
X206149Y99949D01*
X205153D01*
X204191Y99691D01*
X203328Y99193D01*
X202624Y98488D01*
X202156Y97679D01*
X201649Y97578D01*
X201152Y97247D01*
X201098Y97193D01*
X200636Y97384D01*
Y98988D01*
X204268Y102619D01*
X205153Y102382D01*
X206149D01*
X207112Y102640D01*
X207974Y103138D01*
X208679Y103842D01*
X209177Y104705D01*
X209435Y105667D01*
Y106663D01*
X209177Y107626D01*
X208679Y108488D01*
X207974Y109193D01*
X207112Y109691D01*
X206149Y109949D01*
D02*
G37*
G36*
X146149D02*
X145153D01*
X144191Y109691D01*
X143328Y109193D01*
X142624Y108488D01*
X142126Y107626D01*
X141868Y106663D01*
Y105667D01*
X142126Y104705D01*
X142624Y103842D01*
X143328Y103138D01*
X144191Y102640D01*
X145153Y102382D01*
X146149D01*
X147112Y102640D01*
X147974Y103138D01*
X148679Y103842D01*
X149177Y104705D01*
X149435Y105667D01*
Y106663D01*
X149177Y107626D01*
X148679Y108488D01*
X147974Y109193D01*
X147112Y109691D01*
X146149Y109949D01*
D02*
G37*
G36*
X193158Y92248D02*
X190482D01*
Y88484D01*
X193158D01*
Y92248D01*
D02*
G37*
G36*
X189482D02*
X186806D01*
Y88484D01*
X189482D01*
Y92248D01*
D02*
G37*
G36*
X193158Y87484D02*
X190482D01*
Y83719D01*
X193158D01*
Y87484D01*
D02*
G37*
G36*
X189482D02*
X186806D01*
Y83719D01*
X189482D01*
Y87484D01*
D02*
G37*
G36*
X166130Y87484D02*
X163454D01*
Y83719D01*
X166130D01*
Y87484D01*
D02*
G37*
G36*
X162454D02*
X159778D01*
Y83719D01*
X162454D01*
Y87484D01*
D02*
G37*
G36*
X146149Y79949D02*
X145153D01*
X144191Y79691D01*
X143328Y79193D01*
X142624Y78488D01*
X142126Y77626D01*
X141868Y76664D01*
Y75667D01*
X142126Y74705D01*
X142624Y73842D01*
X143328Y73138D01*
X144191Y72640D01*
X145153Y72382D01*
X146149D01*
X147112Y72640D01*
X147974Y73138D01*
X148679Y73842D01*
X149177Y74705D01*
X149435Y75667D01*
Y76664D01*
X149177Y77626D01*
X148679Y78488D01*
X147974Y79193D01*
X147112Y79691D01*
X146149Y79949D01*
D02*
G37*
G36*
Y69949D02*
X145153D01*
X144191Y69691D01*
X143328Y69193D01*
X142624Y68489D01*
X142126Y67626D01*
X141868Y66663D01*
Y65667D01*
X142126Y64705D01*
X142624Y63842D01*
X143328Y63138D01*
X144191Y62640D01*
X145153Y62382D01*
X146149D01*
X147112Y62640D01*
X147974Y63138D01*
X148679Y63842D01*
X149177Y64705D01*
X149435Y65667D01*
Y66663D01*
X149177Y67626D01*
X148679Y68489D01*
X147974Y69193D01*
X147112Y69691D01*
X146149Y69949D01*
D02*
G37*
G36*
Y89949D02*
X145153D01*
X144191Y89691D01*
X143328Y89193D01*
X142624Y88489D01*
X142126Y87626D01*
X141868Y86664D01*
Y85667D01*
X142126Y84705D01*
X142624Y83842D01*
X143328Y83138D01*
X144191Y82640D01*
X145153Y82382D01*
X146149D01*
X147035Y82619D01*
X170163Y59490D01*
X170660Y59159D01*
X171088Y59073D01*
Y57731D01*
X175450D01*
Y60472D01*
X175470Y60572D01*
X175450Y60672D01*
Y62880D01*
X171099D01*
X149197Y84782D01*
X149435Y85667D01*
Y86664D01*
X149177Y87626D01*
X148679Y88489D01*
X147974Y89193D01*
X147112Y89691D01*
X146149Y89949D01*
D02*
G37*
G36*
X175450Y55345D02*
X173376D01*
Y53271D01*
X175450D01*
Y55345D01*
D02*
G37*
G36*
X172376D02*
X170301D01*
Y53271D01*
X172376D01*
Y55345D01*
D02*
G37*
G36*
X206149Y59949D02*
X205153D01*
X204191Y59691D01*
X203328Y59193D01*
X202624Y58489D01*
X202126Y57626D01*
X201868Y56664D01*
Y55667D01*
X202126Y54705D01*
X202624Y53842D01*
X203328Y53138D01*
X204191Y52640D01*
X205153Y52382D01*
X206149D01*
X207112Y52640D01*
X207974Y53138D01*
X208679Y53842D01*
X209177Y54705D01*
X209435Y55667D01*
Y56664D01*
X209177Y57626D01*
X208679Y58489D01*
X207974Y59193D01*
X207112Y59691D01*
X206149Y59949D01*
D02*
G37*
G36*
X146149D02*
X145153D01*
X144191Y59691D01*
X143328Y59193D01*
X142624Y58489D01*
X142126Y57626D01*
X141868Y56664D01*
Y55667D01*
X142126Y54705D01*
X142624Y53842D01*
X143328Y53138D01*
X144191Y52640D01*
X145153Y52382D01*
X146149D01*
X147112Y52640D01*
X147974Y53138D01*
X148679Y53842D01*
X149177Y54705D01*
X149435Y55667D01*
Y56664D01*
X149177Y57626D01*
X148679Y58489D01*
X147974Y59193D01*
X147112Y59691D01*
X146149Y59949D01*
D02*
G37*
G36*
X180569Y62880D02*
X176206D01*
Y57731D01*
X176858D01*
Y55345D01*
X176206D01*
Y50196D01*
X181356D01*
Y55345D01*
X179917D01*
Y57731D01*
X180569D01*
Y62880D01*
D02*
G37*
G36*
X175450Y52271D02*
X173376D01*
Y50196D01*
X175450D01*
Y52271D01*
D02*
G37*
G36*
X172376D02*
X170301D01*
Y50196D01*
X172376D01*
Y52271D01*
D02*
G37*
G36*
X206149Y49949D02*
X205153D01*
X204191Y49691D01*
X203328Y49193D01*
X202624Y48489D01*
X202126Y47626D01*
X201868Y46663D01*
Y45667D01*
X202126Y44705D01*
X202624Y43842D01*
X203328Y43138D01*
X204191Y42640D01*
X205153Y42382D01*
X206149D01*
X207112Y42640D01*
X207974Y43138D01*
X208679Y43842D01*
X209177Y44705D01*
X209435Y45667D01*
Y46663D01*
X209177Y47626D01*
X208679Y48489D01*
X207974Y49193D01*
X207112Y49691D01*
X206149Y49949D01*
D02*
G37*
G36*
X146149D02*
X145153D01*
X144191Y49691D01*
X143328Y49193D01*
X142624Y48489D01*
X142126Y47626D01*
X141868Y46663D01*
Y45667D01*
X142126Y44705D01*
X142624Y43842D01*
X143328Y43138D01*
X144191Y42640D01*
X145153Y42382D01*
X146149D01*
X147112Y42640D01*
X147974Y43138D01*
X148679Y43842D01*
X149177Y44705D01*
X149435Y45667D01*
Y46663D01*
X149177Y47626D01*
X148679Y48489D01*
X147974Y49193D01*
X147112Y49691D01*
X146149Y49949D01*
D02*
G37*
G36*
X206149Y39949D02*
X205153D01*
X204191Y39691D01*
X203328Y39193D01*
X202624Y38489D01*
X202126Y37626D01*
X201868Y36663D01*
Y35667D01*
X202126Y34705D01*
X202624Y33842D01*
X203328Y33138D01*
X204191Y32640D01*
X205153Y32382D01*
X206149D01*
X207112Y32640D01*
X207974Y33138D01*
X208679Y33842D01*
X209177Y34705D01*
X209435Y35667D01*
Y36663D01*
X209177Y37626D01*
X208679Y38489D01*
X207974Y39193D01*
X207112Y39691D01*
X206149Y39949D01*
D02*
G37*
G36*
X146149D02*
X145153D01*
X144191Y39691D01*
X143328Y39193D01*
X142624Y38489D01*
X142126Y37626D01*
X141868Y36663D01*
Y35667D01*
X142126Y34705D01*
X142624Y33842D01*
X143328Y33138D01*
X144191Y32640D01*
X145153Y32382D01*
X146149D01*
X147112Y32640D01*
X147974Y33138D01*
X148679Y33842D01*
X149177Y34705D01*
X149435Y35667D01*
Y36663D01*
X149177Y37626D01*
X148679Y38489D01*
X147974Y39193D01*
X147112Y39691D01*
X146149Y39949D01*
D02*
G37*
G36*
Y29949D02*
X145153D01*
X144191Y29691D01*
X143328Y29193D01*
X142624Y28488D01*
X142126Y27626D01*
X141868Y26664D01*
Y25667D01*
X142126Y24705D01*
X142624Y23842D01*
X143328Y23138D01*
X144191Y22640D01*
X145153Y22382D01*
X146149D01*
X147112Y22640D01*
X147974Y23138D01*
X148679Y23842D01*
X149177Y24705D01*
X149435Y25667D01*
Y26664D01*
X149177Y27626D01*
X148679Y28488D01*
X147974Y29193D01*
X147112Y29691D01*
X146149Y29949D01*
D02*
G37*
G36*
X175769Y23340D02*
X174088D01*
Y20675D01*
X175769D01*
Y23340D01*
D02*
G37*
G36*
X173088D02*
X171407D01*
Y20675D01*
X173088D01*
Y23340D01*
D02*
G37*
G36*
X218027Y13000D02*
X216973D01*
X215956Y12727D01*
X215044Y12201D01*
X214299Y11456D01*
X213773Y10544D01*
X213500Y9527D01*
Y8473D01*
X213773Y7456D01*
X214299Y6544D01*
X215044Y5799D01*
X215956Y5273D01*
X216973Y5000D01*
X218027D01*
X219044Y5273D01*
X219956Y5799D01*
X220701Y6544D01*
X221227Y7456D01*
X221500Y8473D01*
Y9527D01*
X221227Y10544D01*
X220701Y11456D01*
X219956Y12201D01*
X219044Y12727D01*
X218027Y13000D01*
D02*
G37*
G36*
X134627D02*
X133573D01*
X132556Y12727D01*
X131644Y12201D01*
X130899Y11456D01*
X130373Y10544D01*
X130100Y9527D01*
Y8473D01*
X130373Y7456D01*
X130899Y6544D01*
X131644Y5799D01*
X132556Y5273D01*
X133573Y5000D01*
X134627D01*
X135644Y5273D01*
X136556Y5799D01*
X137301Y6544D01*
X137827Y7456D01*
X138100Y8473D01*
Y9527D01*
X137827Y10544D01*
X137301Y11456D01*
X136556Y12201D01*
X135644Y12727D01*
X134627Y13000D01*
D02*
G37*
%LPD*%
G36*
X165525Y161008D02*
X166321D01*
X166384Y161034D01*
X166800Y160757D01*
Y154321D01*
X169321D01*
X169512Y153859D01*
X159854Y144200D01*
X159602D01*
X158867Y143895D01*
X158794Y143823D01*
X158333Y144014D01*
Y158519D01*
X158833Y158786D01*
X158926Y158724D01*
Y154321D01*
X164863D01*
Y160741D01*
X165363Y161075D01*
X165525Y161008D01*
D02*
G37*
G36*
X185864Y156779D02*
X186525Y156337D01*
X187306Y156182D01*
X190665D01*
Y154089D01*
X185253Y148677D01*
X184791Y148869D01*
Y153300D01*
X181823D01*
Y154300D01*
X184791D01*
Y157199D01*
X185253Y157390D01*
X185864Y156779D01*
D02*
G37*
G36*
X176628Y154553D02*
Y133671D01*
X176744Y133086D01*
X177076Y132590D01*
X178456Y131210D01*
X178264Y130748D01*
X166026D01*
X163310Y133464D01*
X162814Y133795D01*
X162229Y133912D01*
X158642D01*
X158333Y134222D01*
Y140386D01*
X158794Y140577D01*
X158867Y140505D01*
X159602Y140200D01*
X160398D01*
X160444Y140219D01*
X160738Y140161D01*
X161518Y140316D01*
X162180Y140758D01*
X176166Y154745D01*
X176628Y154553D01*
D02*
G37*
G36*
X199578Y68261D02*
Y67740D01*
X186119Y54281D01*
X185787Y53785D01*
X185671Y53200D01*
Y32477D01*
X185612Y32002D01*
X184960D01*
Y34127D01*
Y54297D01*
X199116Y68453D01*
X199578Y68261D01*
D02*
G37*
D12*
X193634Y154098D02*
X193808D01*
X193558D02*
X193634D01*
Y156753D01*
Y153800D02*
Y154098D01*
X205651Y165942D02*
Y166165D01*
X181626Y139214D02*
Y142166D01*
X153452Y20175D02*
X159117Y14510D01*
X195010D02*
X199648Y19148D01*
X153255Y20175D02*
X153452D01*
X159117Y14510D02*
X195010D01*
X199648Y19148D02*
Y27344D01*
X145651Y86165D02*
X171245Y60572D01*
X173941D01*
X153255Y42100D02*
X153555Y42400D01*
X160000Y142200D02*
X160738D01*
X156803Y133588D02*
Y162637D01*
Y133588D02*
X158009Y132382D01*
X170768Y123843D02*
X176500D01*
X162229Y132382D02*
X170768Y123843D01*
X158009Y132382D02*
X162229D01*
X168880Y197958D02*
X188100Y178737D01*
Y167871D02*
Y178737D01*
X158778Y197958D02*
X168880D01*
X169232Y172594D02*
X169340D01*
X165762Y163170D02*
X165923Y163008D01*
X172218Y160723D02*
Y173460D01*
X169769Y158273D02*
X172218Y160723D01*
X169340Y176338D02*
X172218Y173460D01*
X165600Y168271D02*
X165762Y168110D01*
X178157Y159146D02*
X184498Y165486D01*
Y175561D01*
X178157Y133671D02*
Y159146D01*
X192165Y158221D02*
X193634Y156753D01*
X169769Y157781D02*
Y158273D01*
X178157Y133671D02*
X180580Y131248D01*
X192955Y117507D02*
Y130178D01*
X189783Y114335D02*
X192955Y117507D01*
X191885Y131248D02*
X192955Y130178D01*
X183431Y54931D02*
X199107Y70607D01*
Y99621D01*
X201107Y67107D02*
Y95038D01*
X199107Y99621D02*
X205651Y106165D01*
X178387Y53164D02*
X178781Y52771D01*
X178387Y53164D02*
Y60305D01*
X202234Y96165D02*
X205651D01*
X187200Y53200D02*
X201107Y67107D01*
Y95038D02*
X202234Y96165D01*
X183431Y34127D02*
Y54931D01*
X187200Y30922D02*
Y53200D01*
X156803Y162637D02*
Y168682D01*
X157531Y162637D02*
X161894Y158273D01*
X156803Y162637D02*
X157531D01*
X161894Y157781D02*
Y158273D01*
X169340Y176338D02*
Y176929D01*
X160236Y113749D02*
X160822Y114335D01*
X160236Y106684D02*
Y113749D01*
X160822Y114335D02*
X189783D01*
X156803Y168682D02*
X160721Y172600D01*
X149717Y96165D02*
X160236Y106684D01*
X145651Y96165D02*
X149717D01*
X180580Y131248D02*
X191885D01*
X160721Y172600D02*
X162999D01*
X164738Y174339D01*
Y176067D01*
X165600Y176929D01*
X162932Y27852D02*
X167986D01*
X160051D02*
X162932D01*
X168667Y20175D02*
Y23262D01*
X162932Y27852D02*
X166278Y24506D01*
X167423D01*
X168667Y23262D01*
X183431Y28836D02*
Y34127D01*
X160248Y42400D02*
X175158D01*
X183431Y34127D01*
X160150Y35899D02*
X167510D01*
X173588Y29821D01*
Y28836D02*
Y29821D01*
X168667Y28533D02*
Y28836D01*
X167986Y27852D02*
X168667Y28533D01*
X175828Y16510D02*
X178509Y19191D01*
X160145Y20175D02*
X163810Y16510D01*
X175828D01*
X178509Y19191D02*
Y20175D01*
X159948D02*
X160145D01*
X187200Y27138D02*
Y30922D01*
X189180D02*
X192758Y27344D01*
X187200Y30922D02*
X189180D01*
X192758Y27344D02*
X192955D01*
X185233Y25171D02*
X187200Y27138D01*
X178509Y27852D02*
X181191Y25171D01*
X178509Y27852D02*
Y28836D01*
X181191Y25171D02*
X185233D01*
D13*
X145651Y166165D02*
D03*
D14*
Y156165D02*
D03*
Y146165D02*
D03*
Y136165D02*
D03*
Y126165D02*
D03*
Y116165D02*
D03*
Y106165D02*
D03*
Y96165D02*
D03*
Y86165D02*
D03*
Y76165D02*
D03*
Y66165D02*
D03*
Y56165D02*
D03*
Y46165D02*
D03*
Y36165D02*
D03*
Y26165D02*
D03*
X205651D02*
D03*
Y36165D02*
D03*
Y46165D02*
D03*
Y56165D02*
D03*
Y66165D02*
D03*
Y76165D02*
D03*
Y86165D02*
D03*
Y96165D02*
D03*
Y106165D02*
D03*
Y116165D02*
D03*
Y126165D02*
D03*
Y136165D02*
D03*
Y146165D02*
D03*
Y156165D02*
D03*
Y166165D02*
D03*
D19*
X153255Y20175D02*
Y42100D01*
X181626Y142166D02*
X193558Y154098D01*
X193808D02*
X205651Y165942D01*
X166100Y75200D02*
X168100D01*
X176500Y83600D01*
X158009Y96165D02*
X159790Y94384D01*
X176500D01*
X172513Y88042D02*
X176500D01*
Y83600D02*
Y88042D01*
X153555Y62653D02*
X158009Y67107D01*
X153555Y42400D02*
Y62653D01*
X176500Y94384D02*
Y104157D01*
Y88042D02*
Y94384D01*
X169340Y168271D02*
Y172594D01*
X160738Y142200D02*
X175651Y157114D01*
Y172600D01*
X165762Y163170D02*
Y168110D01*
X161860Y168271D02*
X165600D01*
X184957Y160570D02*
X187306Y158221D01*
X192165D01*
X178463Y197958D02*
X191672D01*
X158778Y217642D02*
X178463Y197958D01*
X176500Y88042D02*
X179441D01*
D20*
X158778Y197958D02*
D03*
X191672D02*
D03*
D21*
X158778Y217642D02*
D03*
X191672D02*
D03*
D22*
X134500Y227000D02*
D03*
X217600D02*
D03*
X134100Y9000D02*
D03*
X217500D02*
D03*
D23*
X166100Y75200D02*
D03*
X158009Y96165D02*
D03*
Y67107D02*
D03*
X160000Y142200D02*
D03*
X175651Y172600D02*
D03*
X169232Y172594D02*
D03*
X165923Y163008D02*
D03*
X184957Y160570D02*
D03*
D24*
X193634Y153800D02*
D03*
X181823D02*
D03*
X181626Y139214D02*
D03*
X193437D02*
D03*
D25*
X176500Y104157D02*
D03*
Y123843D02*
D03*
D26*
X173004Y87984D02*
D03*
X162954D02*
D03*
X179832D02*
D03*
X189882D02*
D03*
D27*
X172876Y52771D02*
D03*
X178781D02*
D03*
D28*
X183431Y20175D02*
D03*
X178509D02*
D03*
X173588D02*
D03*
X168667D02*
D03*
Y28836D02*
D03*
X173588D02*
D03*
X178509D02*
D03*
X183431D02*
D03*
D29*
X160248Y42400D02*
D03*
X153555D02*
D03*
X160150Y35899D02*
D03*
X153457D02*
D03*
X160051Y27852D02*
D03*
X153358D02*
D03*
X153255Y20175D02*
D03*
X159948D02*
D03*
X199648Y27344D02*
D03*
X192955D02*
D03*
D30*
X161894Y157781D02*
D03*
X169769D02*
D03*
D31*
X188100Y167871D02*
D03*
X191702Y175561D02*
D03*
D32*
X184498D02*
D03*
D33*
X169340Y176929D02*
D03*
X165600D02*
D03*
X161860D02*
D03*
Y168271D02*
D03*
X165600D02*
D03*
X169340D02*
D03*
D34*
X173269Y60305D02*
D03*
X178387D02*
D03*
M02*
