G04*
G04 #@! TF.GenerationSoftware,Altium Limited,Altium Designer,23.1.1 (15)*
G04*
G04 Layer_Color=128*
%FSLAX25Y25*%
%MOIN*%
G70*
G04*
G04 #@! TF.SameCoordinates,7F6F0EF6-604E-4872-8498-859B9B4CD440*
G04*
G04*
G04 #@! TF.FilePolarity,Positive*
G04*
G01*
G75*
%ADD44C,0.00500*%
D44*
X143852Y166165D02*
X147450D01*
X145651Y164366D02*
Y167965D01*
X143852Y156165D02*
X147450D01*
X145651Y154366D02*
Y157965D01*
X143852Y146165D02*
X147450D01*
X145651Y144366D02*
Y147965D01*
X143852Y136165D02*
X147450D01*
X145651Y134366D02*
Y137965D01*
X143852Y126165D02*
X147450D01*
X145651Y124366D02*
Y127965D01*
X143852Y116165D02*
X147450D01*
X145651Y114366D02*
Y117965D01*
X143852Y106165D02*
X147450D01*
X145651Y104366D02*
Y107965D01*
X143852Y96165D02*
X147450D01*
X145651Y94366D02*
Y97965D01*
X143852Y86165D02*
X147450D01*
X145651Y84366D02*
Y87965D01*
X143852Y76165D02*
X147450D01*
X145651Y74366D02*
Y77965D01*
X143852Y66165D02*
X147450D01*
X145651Y64366D02*
Y67965D01*
X143852Y56165D02*
X147450D01*
X145651Y54366D02*
Y57965D01*
X143852Y46165D02*
X147450D01*
X145651Y44366D02*
Y47965D01*
X143852Y36165D02*
X147450D01*
X145651Y34366D02*
Y37965D01*
X143852Y26165D02*
X147450D01*
X145651Y24366D02*
Y27965D01*
X203852Y26165D02*
X207450D01*
X205651Y24366D02*
Y27965D01*
X203852Y36165D02*
X207450D01*
X205651Y34366D02*
Y37965D01*
X203852Y46165D02*
X207450D01*
X205651Y44366D02*
Y47965D01*
X203852Y56165D02*
X207450D01*
X205651Y54366D02*
Y57965D01*
X203852Y66165D02*
X207450D01*
X205651Y64366D02*
Y67965D01*
X203852Y76165D02*
X207450D01*
X205651Y74366D02*
Y77965D01*
X203852Y86165D02*
X207450D01*
X205651Y84366D02*
Y87965D01*
X203852Y96165D02*
X207450D01*
X205651Y94366D02*
Y97965D01*
X203852Y106165D02*
X207450D01*
X205651Y104366D02*
Y107965D01*
X203852Y116165D02*
X207450D01*
X205651Y114366D02*
Y117965D01*
X203852Y126165D02*
X207450D01*
X205651Y124366D02*
Y127965D01*
X203852Y136165D02*
X207450D01*
X205651Y134366D02*
Y137965D01*
X203852Y146165D02*
X207450D01*
X205651Y144366D02*
Y147965D01*
X203852Y156165D02*
X207450D01*
X205651Y154366D02*
Y157965D01*
X203852Y166165D02*
X207450D01*
X205651Y164366D02*
Y167965D01*
X156219Y197958D02*
X161337D01*
X158778Y195398D02*
Y200517D01*
X156219Y217642D02*
X161337D01*
X158778Y215083D02*
Y220201D01*
X189113Y197958D02*
X194231D01*
X191672Y195398D02*
Y200517D01*
X189113Y217642D02*
X194231D01*
X191672Y215083D02*
Y220201D01*
X130500Y227000D02*
X138500D01*
X134500Y223000D02*
Y231000D01*
X213600Y227000D02*
X221600D01*
X217600Y223000D02*
Y231000D01*
X130100Y9000D02*
X138100D01*
X134100Y5000D02*
Y13000D01*
X213500Y9000D02*
X221500D01*
X217500Y5000D02*
Y13000D01*
X165600Y75200D02*
X166600D01*
X166100Y74700D02*
Y75700D01*
X157509Y96165D02*
X158509D01*
X158009Y95665D02*
Y96665D01*
X157509Y67107D02*
X158509D01*
X158009Y66607D02*
Y67607D01*
X159500Y142200D02*
X160500D01*
X160000Y141700D02*
Y142700D01*
X175151Y172600D02*
X176151D01*
X175651Y172100D02*
Y173100D01*
X168732Y172594D02*
X169732D01*
X169232Y172094D02*
Y173094D01*
X165423Y163008D02*
X166423D01*
X165923Y162508D02*
Y163508D01*
X184457Y160570D02*
X185457D01*
X184957Y160070D02*
Y161070D01*
M02*
