G04*
G04 #@! TF.GenerationSoftware,Altium Limited,Altium Designer,23.1.1 (15)*
G04*
G04 Layer_Color=2752767*
%FSLAX25Y25*%
%MOIN*%
G70*
G04*
G04 #@! TF.SameCoordinates,7F6F0EF6-604E-4872-8498-859B9B4CD440*
G04*
G04*
G04 #@! TF.FilePolarity,Positive*
G04*
G01*
G75*
%ADD43C,0.00667*%
%ADD44C,0.00500*%
D43*
X147651Y166165D02*
G03*
X147651Y166165I-2000J0D01*
G01*
Y156165D02*
G03*
X147651Y156165I-2000J0D01*
G01*
Y146165D02*
G03*
X147651Y146165I-2000J0D01*
G01*
Y136165D02*
G03*
X147651Y136165I-2000J0D01*
G01*
Y126165D02*
G03*
X147651Y126165I-2000J0D01*
G01*
Y116165D02*
G03*
X147651Y116165I-2000J0D01*
G01*
Y106165D02*
G03*
X147651Y106165I-2000J0D01*
G01*
Y96165D02*
G03*
X147651Y96165I-2000J0D01*
G01*
Y86165D02*
G03*
X147651Y86165I-2000J0D01*
G01*
Y76165D02*
G03*
X147651Y76165I-2000J0D01*
G01*
Y66165D02*
G03*
X147651Y66165I-2000J0D01*
G01*
Y56165D02*
G03*
X147651Y56165I-2000J0D01*
G01*
Y46165D02*
G03*
X147651Y46165I-2000J0D01*
G01*
Y36165D02*
G03*
X147651Y36165I-2000J0D01*
G01*
Y26165D02*
G03*
X147651Y26165I-2000J0D01*
G01*
X207651D02*
G03*
X207651Y26165I-2000J0D01*
G01*
Y36165D02*
G03*
X207651Y36165I-2000J0D01*
G01*
Y46165D02*
G03*
X207651Y46165I-2000J0D01*
G01*
Y56165D02*
G03*
X207651Y56165I-2000J0D01*
G01*
Y66165D02*
G03*
X207651Y66165I-2000J0D01*
G01*
Y76165D02*
G03*
X207651Y76165I-2000J0D01*
G01*
Y86165D02*
G03*
X207651Y86165I-2000J0D01*
G01*
Y96165D02*
G03*
X207651Y96165I-2000J0D01*
G01*
Y106165D02*
G03*
X207651Y106165I-2000J0D01*
G01*
Y116165D02*
G03*
X207651Y116165I-2000J0D01*
G01*
Y126165D02*
G03*
X207651Y126165I-2000J0D01*
G01*
Y136165D02*
G03*
X207651Y136165I-2000J0D01*
G01*
Y146165D02*
G03*
X207651Y146165I-2000J0D01*
G01*
Y156165D02*
G03*
X207651Y156165I-2000J0D01*
G01*
Y166165D02*
G03*
X207651Y166165I-2000J0D01*
G01*
D44*
X156778Y195958D02*
Y199958D01*
X160778D01*
Y195958D01*
X156778D01*
Y215642D02*
Y219642D01*
X160778D01*
Y215642D01*
X156778D01*
X189672Y195958D02*
Y199958D01*
X193672D01*
Y195958D01*
X189672D01*
Y215642D02*
Y219642D01*
X193672D01*
Y215642D01*
X189672D01*
X134500Y225000D02*
X132500Y229000D01*
X136500D01*
X134500Y225000D01*
X217600D02*
X215600Y229000D01*
X219600D01*
X217600Y225000D01*
X134100Y7000D02*
X132100Y11000D01*
X136100D01*
X134100Y7000D01*
X217500D02*
X215500Y11000D01*
X219500D01*
X217500Y7000D01*
X166100Y73200D02*
X167100Y74200D01*
X168100D01*
X167100Y75200D01*
X168100Y76200D01*
X167100D01*
X166100Y77200D01*
X165100Y76200D01*
X164100D01*
X165100Y75200D01*
X164100Y74200D01*
X165100D01*
X166100Y73200D01*
X158009Y94165D02*
X159009Y95165D01*
X160009D01*
X159009Y96165D01*
X160009Y97165D01*
X159009D01*
X158009Y98165D01*
X157009Y97165D01*
X156009D01*
X157009Y96165D01*
X156009Y95165D01*
X157009D01*
X158009Y94165D01*
Y65107D02*
X159009Y66107D01*
X160009D01*
X159009Y67107D01*
X160009Y68107D01*
X159009D01*
X158009Y69107D01*
X157009Y68107D01*
X156009D01*
X157009Y67107D01*
X156009Y66107D01*
X157009D01*
X158009Y65107D01*
X160000Y140200D02*
X161000Y141200D01*
X162000D01*
X161000Y142200D01*
X162000Y143200D01*
X161000D01*
X160000Y144200D01*
X159000Y143200D01*
X158000D01*
X159000Y142200D01*
X158000Y141200D01*
X159000D01*
X160000Y140200D01*
X175651Y170600D02*
X176651Y171600D01*
X177651D01*
X176651Y172600D01*
X177651Y173600D01*
X176651D01*
X175651Y174600D01*
X174651Y173600D01*
X173651D01*
X174651Y172600D01*
X173651Y171600D01*
X174651D01*
X175651Y170600D01*
X169232Y170594D02*
X170232Y171594D01*
X171232D01*
X170232Y172594D01*
X171232Y173594D01*
X170232D01*
X169232Y174594D01*
X168232Y173594D01*
X167232D01*
X168232Y172594D01*
X167232Y171594D01*
X168232D01*
X169232Y170594D01*
X165923Y161008D02*
X166923Y162008D01*
X167923D01*
X166923Y163008D01*
X167923Y164008D01*
X166923D01*
X165923Y165008D01*
X164923Y164008D01*
X163923D01*
X164923Y163008D01*
X163923Y162008D01*
X164923D01*
X165923Y161008D01*
X184957Y158570D02*
X185957Y159570D01*
X186957D01*
X185957Y160570D01*
X186957Y161570D01*
X185957D01*
X184957Y162570D01*
X183957Y161570D01*
X182957D01*
X183957Y160570D01*
X182957Y159570D01*
X183957D01*
X184957Y158570D01*
M02*
