G04*
G04 #@! TF.GenerationSoftware,Altium Limited,Altium Designer,23.1.1 (15)*
G04*
G04 Layer_Color=128*
%FSLAX25Y25*%
%MOIN*%
G70*
G04*
G04 #@! TF.SameCoordinates,0BDBEAC4-C0BD-4DD4-8220-68B77C2E4246*
G04*
G04*
G04 #@! TF.FilePolarity,Positive*
G04*
G01*
G75*
%ADD24R,0.03937X0.09843*%
%ADD26R,0.04352X0.06528*%
%ADD27R,0.03150X0.03150*%
%ADD29R,0.03543X0.03150*%
%ADD30R,0.03937X0.04921*%
G04:AMPARAMS|DCode=31|XSize=65.3mil|YSize=24.68mil|CornerRadius=12.34mil|HoleSize=0mil|Usage=FLASHONLY|Rotation=270.000|XOffset=0mil|YOffset=0mil|HoleType=Round|Shape=RoundedRectangle|*
%AMROUNDEDRECTD31*
21,1,0.06530,0.00000,0,0,270.0*
21,1,0.04063,0.02468,0,0,270.0*
1,1,0.02468,0.00000,-0.02031*
1,1,0.02468,0.00000,0.02031*
1,1,0.02468,0.00000,0.02031*
1,1,0.02468,0.00000,-0.02031*
%
%ADD31ROUNDEDRECTD31*%
%ADD32R,0.02468X0.06530*%
%ADD33R,0.02756X0.03937*%
%ADD36R,0.31528X0.13811*%
%ADD37R,0.04362X0.06331*%
%ADD38R,0.04362X0.05150*%
D24*
X193634Y153800D02*
D03*
X181823D02*
D03*
X181626Y139214D02*
D03*
X193437D02*
D03*
D26*
X173004Y87984D02*
D03*
X162954D02*
D03*
X179932D02*
D03*
X189982D02*
D03*
D27*
X172876Y52771D02*
D03*
X178781D02*
D03*
D29*
X160248Y42400D02*
D03*
X153555D02*
D03*
X160150Y35899D02*
D03*
X153457D02*
D03*
X160051Y27852D02*
D03*
X153358D02*
D03*
X153255Y20175D02*
D03*
X159948D02*
D03*
X199648Y27344D02*
D03*
X192955D02*
D03*
D30*
X161894Y157781D02*
D03*
X169769D02*
D03*
D31*
X188100Y167871D02*
D03*
X191702Y175561D02*
D03*
D32*
X184498D02*
D03*
D33*
X169340Y176929D02*
D03*
X165600D02*
D03*
X161860D02*
D03*
Y168271D02*
D03*
X165600D02*
D03*
X169340D02*
D03*
D36*
X176500Y104157D02*
D03*
Y123843D02*
D03*
D37*
X183431Y20175D02*
D03*
X178509D02*
D03*
X173588D02*
D03*
X168667D02*
D03*
Y28836D02*
D03*
X173588D02*
D03*
X178509D02*
D03*
X183431D02*
D03*
D38*
X173269Y60305D02*
D03*
X178387D02*
D03*
M02*
