G04*
G04 #@! TF.GenerationSoftware,Altium Limited,Altium Designer,23.1.1 (15)*
G04*
G04 Layer_Color=16711935*
%FSLAX25Y25*%
%MOIN*%
G70*
G04*
G04 #@! TF.SameCoordinates,7F6F0EF6-604E-4872-8498-859B9B4CD440*
G04*
G04*
G04 #@! TF.FilePolarity,Positive*
G04*
G01*
G75*
%ADD11C,0.00787*%
%ADD41C,0.00394*%
G36*
X183634Y93880D02*
X183324D01*
Y94233D01*
X183634D01*
Y93880D01*
D02*
G37*
G36*
X180875Y91714D02*
X180587D01*
Y91944D01*
X180583Y91940D01*
X180580Y91933D01*
X180569Y91918D01*
X180554Y91900D01*
X180536Y91882D01*
X180514Y91860D01*
X180489Y91834D01*
X180456Y91809D01*
X180423Y91783D01*
X180387Y91758D01*
X180343Y91736D01*
X180296Y91718D01*
X180248Y91700D01*
X180194Y91685D01*
X180136Y91678D01*
X180074Y91674D01*
X180052D01*
X180037Y91678D01*
X179994Y91681D01*
X179943Y91689D01*
X179881Y91703D01*
X179812Y91725D01*
X179743Y91754D01*
X179673Y91794D01*
X179670D01*
X179666Y91802D01*
X179644Y91816D01*
X179612Y91845D01*
X179571Y91882D01*
X179524Y91929D01*
X179477Y91987D01*
X179429Y92053D01*
X179390Y92129D01*
Y92133D01*
X179386Y92140D01*
X179382Y92151D01*
X179375Y92166D01*
X179368Y92188D01*
X179357Y92213D01*
X179349Y92238D01*
X179342Y92271D01*
X179324Y92344D01*
X179306Y92428D01*
X179295Y92522D01*
X179291Y92624D01*
Y92628D01*
Y92635D01*
Y92650D01*
Y92672D01*
X179295Y92693D01*
Y92723D01*
X179302Y92788D01*
X179313Y92865D01*
X179331Y92948D01*
X179353Y93036D01*
X179382Y93119D01*
Y93123D01*
X179386Y93130D01*
X179393Y93141D01*
X179400Y93156D01*
X179422Y93196D01*
X179451Y93247D01*
X179488Y93301D01*
X179535Y93356D01*
X179590Y93414D01*
X179655Y93462D01*
X179659D01*
X179663Y93465D01*
X179673Y93472D01*
X179688Y93480D01*
X179724Y93498D01*
X179775Y93523D01*
X179833Y93545D01*
X179903Y93563D01*
X179979Y93578D01*
X180059Y93582D01*
X180088D01*
X180117Y93578D01*
X180157Y93574D01*
X180205Y93563D01*
X180256Y93553D01*
X180307Y93534D01*
X180354Y93509D01*
X180361Y93505D01*
X180376Y93498D01*
X180398Y93480D01*
X180427Y93462D01*
X180463Y93436D01*
X180496Y93403D01*
X180532Y93370D01*
X180565Y93330D01*
Y94233D01*
X180875D01*
Y91714D01*
D02*
G37*
G36*
X194415Y93578D02*
X194455Y93574D01*
X194503Y93567D01*
X194554Y93556D01*
X194608Y93542D01*
X194659Y93520D01*
X194667Y93516D01*
X194681Y93509D01*
X194707Y93498D01*
X194736Y93480D01*
X194772Y93458D01*
X194805Y93429D01*
X194838Y93400D01*
X194867Y93363D01*
X194870Y93360D01*
X194878Y93345D01*
X194889Y93327D01*
X194907Y93301D01*
X194921Y93265D01*
X194936Y93229D01*
X194954Y93185D01*
X194965Y93138D01*
Y93134D01*
X194969Y93119D01*
X194972Y93098D01*
X194976Y93068D01*
Y93025D01*
X194980Y92974D01*
X194983Y92912D01*
Y92835D01*
Y91714D01*
X194674D01*
Y92821D01*
Y92825D01*
Y92828D01*
Y92854D01*
Y92886D01*
X194670Y92926D01*
X194667Y92974D01*
X194659Y93021D01*
X194648Y93065D01*
X194637Y93105D01*
Y93108D01*
X194630Y93119D01*
X194619Y93138D01*
X194608Y93159D01*
X194590Y93181D01*
X194568Y93207D01*
X194539Y93232D01*
X194506Y93254D01*
X194503Y93258D01*
X194492Y93265D01*
X194470Y93272D01*
X194445Y93283D01*
X194415Y93294D01*
X194379Y93305D01*
X194335Y93309D01*
X194292Y93312D01*
X194273D01*
X194259Y93309D01*
X194222Y93305D01*
X194175Y93298D01*
X194124Y93279D01*
X194066Y93258D01*
X194008Y93229D01*
X193953Y93185D01*
X193946Y93177D01*
X193931Y93159D01*
X193920Y93145D01*
X193909Y93127D01*
X193895Y93105D01*
X193884Y93079D01*
X193869Y93050D01*
X193855Y93014D01*
X193844Y92974D01*
X193833Y92930D01*
X193826Y92883D01*
X193818Y92832D01*
X193811Y92770D01*
Y92708D01*
Y91714D01*
X193502D01*
Y93542D01*
X193778D01*
Y93279D01*
X193782Y93283D01*
X193789Y93294D01*
X193800Y93309D01*
X193815Y93327D01*
X193837Y93349D01*
X193862Y93374D01*
X193891Y93403D01*
X193928Y93432D01*
X193964Y93458D01*
X194008Y93487D01*
X194055Y93512D01*
X194106Y93534D01*
X194164Y93553D01*
X194222Y93567D01*
X194288Y93578D01*
X194357Y93582D01*
X194386D01*
X194415Y93578D01*
D02*
G37*
G36*
X185021D02*
X185061Y93574D01*
X185108Y93567D01*
X185159Y93556D01*
X185213Y93542D01*
X185264Y93520D01*
X185272Y93516D01*
X185286Y93509D01*
X185312Y93498D01*
X185341Y93480D01*
X185377Y93458D01*
X185410Y93429D01*
X185443Y93400D01*
X185472Y93363D01*
X185476Y93360D01*
X185483Y93345D01*
X185494Y93327D01*
X185512Y93301D01*
X185527Y93265D01*
X185541Y93229D01*
X185559Y93185D01*
X185570Y93138D01*
Y93134D01*
X185574Y93119D01*
X185577Y93098D01*
X185581Y93068D01*
Y93025D01*
X185585Y92974D01*
X185588Y92912D01*
Y92835D01*
Y91714D01*
X185279D01*
Y92821D01*
Y92825D01*
Y92828D01*
Y92854D01*
Y92886D01*
X185275Y92926D01*
X185272Y92974D01*
X185264Y93021D01*
X185254Y93065D01*
X185243Y93105D01*
Y93108D01*
X185235Y93119D01*
X185224Y93138D01*
X185213Y93159D01*
X185195Y93181D01*
X185173Y93207D01*
X185144Y93232D01*
X185112Y93254D01*
X185108Y93258D01*
X185097Y93265D01*
X185075Y93272D01*
X185050Y93283D01*
X185021Y93294D01*
X184984Y93305D01*
X184941Y93309D01*
X184897Y93312D01*
X184879D01*
X184864Y93309D01*
X184828Y93305D01*
X184780Y93298D01*
X184729Y93279D01*
X184671Y93258D01*
X184613Y93229D01*
X184558Y93185D01*
X184551Y93177D01*
X184536Y93159D01*
X184526Y93145D01*
X184515Y93127D01*
X184500Y93105D01*
X184489Y93079D01*
X184475Y93050D01*
X184460Y93014D01*
X184449Y92974D01*
X184438Y92930D01*
X184431Y92883D01*
X184424Y92832D01*
X184416Y92770D01*
Y92708D01*
Y91714D01*
X184107D01*
Y93542D01*
X184383D01*
Y93279D01*
X184387Y93283D01*
X184395Y93294D01*
X184405Y93309D01*
X184420Y93327D01*
X184442Y93349D01*
X184467Y93374D01*
X184496Y93403D01*
X184533Y93432D01*
X184569Y93458D01*
X184613Y93487D01*
X184660Y93512D01*
X184711Y93534D01*
X184769Y93553D01*
X184828Y93567D01*
X184893Y93578D01*
X184962Y93582D01*
X184991D01*
X185021Y93578D01*
D02*
G37*
G36*
X178964D02*
X179004Y93571D01*
X179051Y93556D01*
X179102Y93538D01*
X179160Y93512D01*
X179222Y93480D01*
X179109Y93196D01*
X179105Y93199D01*
X179091Y93207D01*
X179069Y93218D01*
X179040Y93229D01*
X179007Y93239D01*
X178967Y93250D01*
X178927Y93258D01*
X178887Y93261D01*
X178869D01*
X178851Y93258D01*
X178825Y93254D01*
X178800Y93247D01*
X178767Y93236D01*
X178734Y93221D01*
X178705Y93199D01*
X178701Y93196D01*
X178691Y93189D01*
X178680Y93174D01*
X178662Y93156D01*
X178643Y93130D01*
X178625Y93101D01*
X178607Y93068D01*
X178592Y93028D01*
X178589Y93021D01*
X178585Y92999D01*
X178578Y92966D01*
X178567Y92923D01*
X178556Y92868D01*
X178549Y92806D01*
X178545Y92741D01*
X178541Y92668D01*
Y91714D01*
X178232D01*
Y93542D01*
X178512D01*
Y93265D01*
X178516Y93269D01*
X178530Y93294D01*
X178549Y93327D01*
X178578Y93367D01*
X178607Y93407D01*
X178640Y93450D01*
X178672Y93487D01*
X178705Y93516D01*
X178709Y93520D01*
X178720Y93527D01*
X178742Y93538D01*
X178763Y93549D01*
X178793Y93560D01*
X178829Y93571D01*
X178865Y93578D01*
X178905Y93582D01*
X178931D01*
X178964Y93578D01*
D02*
G37*
G36*
X191023Y91714D02*
X190677D01*
X189359Y93691D01*
Y91714D01*
X189039D01*
Y94233D01*
X189381D01*
X190703Y92253D01*
Y94233D01*
X191023D01*
Y91714D01*
D02*
G37*
G36*
X182840D02*
X182564D01*
Y91980D01*
X182560Y91976D01*
X182553Y91965D01*
X182542Y91951D01*
X182524Y91933D01*
X182502Y91911D01*
X182476Y91882D01*
X182447Y91856D01*
X182411Y91827D01*
X182371Y91798D01*
X182327Y91773D01*
X182280Y91747D01*
X182229Y91722D01*
X182170Y91703D01*
X182112Y91689D01*
X182047Y91678D01*
X181981Y91674D01*
X181956D01*
X181923Y91678D01*
X181883Y91681D01*
X181835Y91689D01*
X181785Y91700D01*
X181734Y91714D01*
X181679Y91736D01*
X181672Y91740D01*
X181657Y91747D01*
X181632Y91762D01*
X181603Y91780D01*
X181566Y91802D01*
X181533Y91827D01*
X181501Y91856D01*
X181472Y91889D01*
X181468Y91893D01*
X181461Y91907D01*
X181450Y91925D01*
X181435Y91954D01*
X181417Y91987D01*
X181402Y92027D01*
X181388Y92071D01*
X181377Y92118D01*
Y92122D01*
X181373Y92137D01*
X181370Y92158D01*
Y92188D01*
X181366Y92231D01*
X181362Y92278D01*
X181359Y92340D01*
Y92409D01*
Y93542D01*
X181668D01*
Y92526D01*
Y92522D01*
Y92515D01*
Y92504D01*
Y92486D01*
Y92446D01*
X181672Y92395D01*
Y92340D01*
X181675Y92286D01*
X181679Y92238D01*
X181686Y92198D01*
Y92195D01*
X181694Y92180D01*
X181701Y92158D01*
X181712Y92129D01*
X181730Y92100D01*
X181752Y92067D01*
X181777Y92038D01*
X181810Y92009D01*
X181814Y92005D01*
X181828Y91998D01*
X181846Y91987D01*
X181876Y91976D01*
X181908Y91962D01*
X181948Y91951D01*
X181992Y91944D01*
X182043Y91940D01*
X182069D01*
X182094Y91944D01*
X182127Y91947D01*
X182167Y91958D01*
X182211Y91969D01*
X182258Y91987D01*
X182305Y92009D01*
X182312Y92013D01*
X182327Y92024D01*
X182349Y92038D01*
X182374Y92060D01*
X182403Y92089D01*
X182432Y92122D01*
X182458Y92158D01*
X182480Y92202D01*
X182483Y92209D01*
X182487Y92224D01*
X182494Y92253D01*
X182505Y92293D01*
X182516Y92344D01*
X182524Y92406D01*
X182527Y92479D01*
X182531Y92562D01*
Y93542D01*
X182840D01*
Y91714D01*
D02*
G37*
G36*
X192395Y93578D02*
X192450Y93574D01*
X192512Y93567D01*
X192574Y93556D01*
X192635Y93542D01*
X192694Y93523D01*
X192701Y93520D01*
X192719Y93512D01*
X192745Y93502D01*
X192777Y93487D01*
X192814Y93465D01*
X192850Y93443D01*
X192883Y93414D01*
X192912Y93385D01*
X192916Y93381D01*
X192923Y93370D01*
X192934Y93352D01*
X192948Y93330D01*
X192967Y93298D01*
X192981Y93265D01*
X192996Y93225D01*
X193007Y93177D01*
Y93174D01*
X193010Y93163D01*
X193014Y93141D01*
X193018Y93112D01*
Y93072D01*
X193021Y93025D01*
X193025Y92963D01*
Y92894D01*
Y92479D01*
Y92475D01*
Y92461D01*
Y92439D01*
Y92409D01*
Y92377D01*
Y92337D01*
X193028Y92249D01*
Y92158D01*
X193032Y92067D01*
X193036Y92027D01*
Y91991D01*
X193040Y91958D01*
X193043Y91933D01*
Y91929D01*
X193047Y91914D01*
X193050Y91893D01*
X193061Y91864D01*
X193069Y91831D01*
X193083Y91794D01*
X193101Y91754D01*
X193120Y91714D01*
X192796D01*
X192792Y91718D01*
X192788Y91733D01*
X192781Y91751D01*
X192770Y91780D01*
X192759Y91812D01*
X192752Y91853D01*
X192745Y91896D01*
X192737Y91944D01*
X192734D01*
X192730Y91936D01*
X192708Y91918D01*
X192675Y91893D01*
X192632Y91860D01*
X192577Y91827D01*
X192523Y91791D01*
X192464Y91758D01*
X192403Y91733D01*
X192395Y91729D01*
X192373Y91725D01*
X192341Y91714D01*
X192300Y91703D01*
X192250Y91692D01*
X192191Y91685D01*
X192126Y91678D01*
X192060Y91674D01*
X192031D01*
X192009Y91678D01*
X191984D01*
X191955Y91681D01*
X191889Y91692D01*
X191816Y91711D01*
X191736Y91736D01*
X191664Y91773D01*
X191598Y91820D01*
X191591Y91827D01*
X191573Y91845D01*
X191547Y91878D01*
X191518Y91922D01*
X191489Y91976D01*
X191463Y92038D01*
X191445Y92115D01*
X191442Y92151D01*
X191438Y92195D01*
Y92202D01*
Y92217D01*
X191442Y92242D01*
X191445Y92275D01*
X191452Y92315D01*
X191463Y92355D01*
X191478Y92399D01*
X191496Y92439D01*
X191500Y92442D01*
X191507Y92457D01*
X191522Y92479D01*
X191540Y92504D01*
X191562Y92533D01*
X191591Y92562D01*
X191620Y92592D01*
X191656Y92617D01*
X191660Y92621D01*
X191674Y92628D01*
X191693Y92642D01*
X191722Y92657D01*
X191754Y92672D01*
X191795Y92690D01*
X191835Y92704D01*
X191882Y92719D01*
X191886D01*
X191900Y92723D01*
X191922Y92730D01*
X191951Y92734D01*
X191988Y92741D01*
X192035Y92748D01*
X192089Y92759D01*
X192155Y92766D01*
X192159D01*
X192173Y92770D01*
X192191D01*
X192217Y92773D01*
X192246Y92777D01*
X192282Y92784D01*
X192322Y92788D01*
X192366Y92795D01*
X192453Y92813D01*
X192548Y92832D01*
X192632Y92854D01*
X192672Y92865D01*
X192708Y92875D01*
Y92879D01*
Y92886D01*
X192712Y92908D01*
Y92934D01*
Y92948D01*
Y92955D01*
Y92959D01*
Y92963D01*
Y92985D01*
X192708Y93021D01*
X192701Y93061D01*
X192690Y93105D01*
X192672Y93148D01*
X192650Y93189D01*
X192621Y93221D01*
X192617Y93225D01*
X192599Y93239D01*
X192570Y93254D01*
X192534Y93276D01*
X192482Y93294D01*
X192424Y93312D01*
X192351Y93323D01*
X192268Y93327D01*
X192231D01*
X192195Y93323D01*
X192144Y93316D01*
X192093Y93309D01*
X192039Y93294D01*
X191988Y93276D01*
X191944Y93250D01*
X191940Y93247D01*
X191926Y93236D01*
X191907Y93218D01*
X191886Y93189D01*
X191864Y93152D01*
X191838Y93105D01*
X191816Y93046D01*
X191795Y92981D01*
X191492Y93021D01*
Y93025D01*
X191496Y93028D01*
Y93039D01*
X191500Y93054D01*
X191511Y93086D01*
X191525Y93134D01*
X191543Y93181D01*
X191565Y93232D01*
X191594Y93283D01*
X191627Y93330D01*
X191631Y93334D01*
X191645Y93349D01*
X191667Y93370D01*
X191696Y93400D01*
X191736Y93429D01*
X191784Y93458D01*
X191838Y93491D01*
X191900Y93516D01*
X191904D01*
X191907Y93520D01*
X191918Y93523D01*
X191933Y93527D01*
X191969Y93538D01*
X192020Y93549D01*
X192078Y93560D01*
X192151Y93571D01*
X192228Y93578D01*
X192315Y93582D01*
X192355D01*
X192395Y93578D01*
D02*
G37*
G36*
X183634Y91714D02*
X183324D01*
Y93542D01*
X183634D01*
Y91714D01*
D02*
G37*
G36*
X178006D02*
X177628D01*
X177333Y92479D01*
X176277D01*
X176004Y91714D01*
X175651D01*
X176612Y94233D01*
X176976D01*
X178006Y91714D01*
D02*
G37*
G36*
X196261Y93578D02*
X196294Y93574D01*
X196330Y93567D01*
X196370Y93560D01*
X196417Y93553D01*
X196516Y93520D01*
X196567Y93502D01*
X196618Y93476D01*
X196669Y93450D01*
X196720Y93414D01*
X196767Y93378D01*
X196814Y93334D01*
X196818Y93330D01*
X196825Y93323D01*
X196836Y93309D01*
X196851Y93290D01*
X196869Y93265D01*
X196891Y93232D01*
X196912Y93196D01*
X196934Y93156D01*
X196956Y93112D01*
X196978Y93057D01*
X197000Y93003D01*
X197018Y92941D01*
X197032Y92875D01*
X197044Y92806D01*
X197051Y92734D01*
X197054Y92653D01*
Y92650D01*
Y92639D01*
Y92621D01*
Y92595D01*
X197051Y92566D01*
X197047Y92530D01*
Y92493D01*
X197040Y92453D01*
X197029Y92362D01*
X197007Y92271D01*
X196982Y92180D01*
X196945Y92097D01*
Y92093D01*
X196942Y92089D01*
X196934Y92078D01*
X196927Y92064D01*
X196902Y92027D01*
X196869Y91984D01*
X196825Y91933D01*
X196771Y91882D01*
X196709Y91831D01*
X196636Y91783D01*
X196632D01*
X196628Y91780D01*
X196618Y91773D01*
X196599Y91765D01*
X196581Y91758D01*
X196559Y91751D01*
X196505Y91729D01*
X196443Y91711D01*
X196366Y91692D01*
X196286Y91678D01*
X196199Y91674D01*
X196163D01*
X196133Y91678D01*
X196101Y91681D01*
X196064Y91689D01*
X196021Y91696D01*
X195977Y91703D01*
X195879Y91733D01*
X195824Y91754D01*
X195773Y91776D01*
X195722Y91805D01*
X195671Y91838D01*
X195624Y91874D01*
X195577Y91918D01*
X195573Y91922D01*
X195566Y91929D01*
X195555Y91944D01*
X195540Y91965D01*
X195522Y91991D01*
X195504Y92020D01*
X195482Y92056D01*
X195460Y92100D01*
X195438Y92147D01*
X195416Y92202D01*
X195398Y92260D01*
X195380Y92322D01*
X195365Y92391D01*
X195354Y92464D01*
X195347Y92544D01*
X195344Y92628D01*
Y92635D01*
Y92650D01*
X195347Y92675D01*
Y92712D01*
X195351Y92752D01*
X195358Y92803D01*
X195365Y92854D01*
X195380Y92912D01*
X195395Y92970D01*
X195413Y93032D01*
X195435Y93098D01*
X195464Y93159D01*
X195493Y93218D01*
X195533Y93276D01*
X195573Y93330D01*
X195624Y93378D01*
X195627Y93381D01*
X195635Y93385D01*
X195649Y93396D01*
X195668Y93410D01*
X195689Y93425D01*
X195719Y93443D01*
X195748Y93462D01*
X195784Y93480D01*
X195824Y93498D01*
X195868Y93516D01*
X195966Y93549D01*
X196079Y93574D01*
X196137Y93578D01*
X196199Y93582D01*
X196235D01*
X196261Y93578D01*
D02*
G37*
G36*
X186866D02*
X186899Y93574D01*
X186935Y93567D01*
X186975Y93560D01*
X187023Y93553D01*
X187121Y93520D01*
X187172Y93502D01*
X187223Y93476D01*
X187274Y93450D01*
X187325Y93414D01*
X187372Y93378D01*
X187419Y93334D01*
X187423Y93330D01*
X187430Y93323D01*
X187441Y93309D01*
X187456Y93290D01*
X187474Y93265D01*
X187496Y93232D01*
X187518Y93196D01*
X187539Y93156D01*
X187561Y93112D01*
X187583Y93057D01*
X187605Y93003D01*
X187623Y92941D01*
X187638Y92875D01*
X187649Y92806D01*
X187656Y92734D01*
X187660Y92653D01*
Y92650D01*
Y92639D01*
Y92621D01*
Y92595D01*
X187656Y92566D01*
X187652Y92530D01*
Y92493D01*
X187645Y92453D01*
X187634Y92362D01*
X187612Y92271D01*
X187587Y92180D01*
X187550Y92097D01*
Y92093D01*
X187547Y92089D01*
X187539Y92078D01*
X187532Y92064D01*
X187507Y92027D01*
X187474Y91984D01*
X187430Y91933D01*
X187376Y91882D01*
X187314Y91831D01*
X187241Y91783D01*
X187237D01*
X187234Y91780D01*
X187223Y91773D01*
X187205Y91765D01*
X187186Y91758D01*
X187164Y91751D01*
X187110Y91729D01*
X187048Y91711D01*
X186972Y91692D01*
X186891Y91678D01*
X186804Y91674D01*
X186768D01*
X186739Y91678D01*
X186706Y91681D01*
X186670Y91689D01*
X186626Y91696D01*
X186582Y91703D01*
X186484Y91733D01*
X186429Y91754D01*
X186378Y91776D01*
X186327Y91805D01*
X186276Y91838D01*
X186229Y91874D01*
X186182Y91918D01*
X186178Y91922D01*
X186171Y91929D01*
X186160Y91944D01*
X186145Y91965D01*
X186127Y91991D01*
X186109Y92020D01*
X186087Y92056D01*
X186065Y92100D01*
X186043Y92147D01*
X186022Y92202D01*
X186003Y92260D01*
X185985Y92322D01*
X185971Y92391D01*
X185960Y92464D01*
X185952Y92544D01*
X185949Y92628D01*
Y92635D01*
Y92650D01*
X185952Y92675D01*
Y92712D01*
X185956Y92752D01*
X185963Y92803D01*
X185971Y92854D01*
X185985Y92912D01*
X186000Y92970D01*
X186018Y93032D01*
X186040Y93098D01*
X186069Y93159D01*
X186098Y93218D01*
X186138Y93276D01*
X186178Y93330D01*
X186229Y93378D01*
X186233Y93381D01*
X186240Y93385D01*
X186255Y93396D01*
X186273Y93410D01*
X186295Y93425D01*
X186324Y93443D01*
X186353Y93462D01*
X186389Y93480D01*
X186429Y93498D01*
X186473Y93516D01*
X186571Y93549D01*
X186684Y93574D01*
X186742Y93578D01*
X186804Y93582D01*
X186841D01*
X186866Y93578D01*
D02*
G37*
%LPC*%
G36*
X180092Y93327D02*
X180074D01*
X180059Y93323D01*
X180019Y93319D01*
X179972Y93305D01*
X179917Y93287D01*
X179859Y93254D01*
X179801Y93214D01*
X179772Y93185D01*
X179746Y93156D01*
Y93152D01*
X179739Y93148D01*
X179735Y93138D01*
X179724Y93123D01*
X179713Y93105D01*
X179702Y93083D01*
X179692Y93057D01*
X179677Y93028D01*
X179663Y92992D01*
X179651Y92952D01*
X179641Y92908D01*
X179630Y92861D01*
X179622Y92810D01*
X179615Y92752D01*
X179608Y92690D01*
Y92624D01*
Y92621D01*
Y92610D01*
Y92592D01*
X179612Y92566D01*
Y92537D01*
X179615Y92504D01*
X179626Y92428D01*
X179644Y92344D01*
X179670Y92257D01*
X179706Y92173D01*
X179728Y92137D01*
X179753Y92100D01*
X179757D01*
X179761Y92093D01*
X179779Y92075D01*
X179812Y92045D01*
X179852Y92016D01*
X179903Y91984D01*
X179965Y91954D01*
X180030Y91936D01*
X180067Y91933D01*
X180103Y91929D01*
X180121D01*
X180136Y91933D01*
X180176Y91936D01*
X180223Y91951D01*
X180278Y91969D01*
X180336Y91998D01*
X180394Y92038D01*
X180423Y92064D01*
X180449Y92093D01*
Y92097D01*
X180456Y92100D01*
X180463Y92111D01*
X180471Y92126D01*
X180482Y92144D01*
X180496Y92162D01*
X180507Y92191D01*
X180522Y92220D01*
X180536Y92253D01*
X180547Y92289D01*
X180562Y92333D01*
X180572Y92377D01*
X180580Y92428D01*
X180587Y92479D01*
X180594Y92537D01*
Y92599D01*
Y92602D01*
Y92617D01*
Y92635D01*
X180591Y92661D01*
Y92690D01*
X180587Y92726D01*
X180583Y92766D01*
X180576Y92810D01*
X180558Y92897D01*
X180532Y92988D01*
X180496Y93076D01*
X180474Y93112D01*
X180449Y93148D01*
Y93152D01*
X180441Y93156D01*
X180423Y93177D01*
X180391Y93207D01*
X180350Y93239D01*
X180299Y93272D01*
X180238Y93298D01*
X180168Y93319D01*
X180132Y93323D01*
X180092Y93327D01*
D02*
G37*
G36*
X192712Y92632D02*
X192708D01*
X192705Y92628D01*
X192694Y92624D01*
X192679Y92621D01*
X192661Y92613D01*
X192639Y92606D01*
X192614Y92599D01*
X192585Y92592D01*
X192552Y92581D01*
X192512Y92573D01*
X192472Y92562D01*
X192424Y92551D01*
X192373Y92541D01*
X192322Y92530D01*
X192264Y92522D01*
X192202Y92511D01*
X192195D01*
X192173Y92508D01*
X192137Y92501D01*
X192097Y92493D01*
X192053Y92486D01*
X192009Y92475D01*
X191969Y92464D01*
X191933Y92449D01*
X191929D01*
X191918Y92442D01*
X191904Y92435D01*
X191889Y92424D01*
X191846Y92395D01*
X191809Y92351D01*
Y92348D01*
X191802Y92340D01*
X191798Y92326D01*
X191791Y92308D01*
X191784Y92286D01*
X191776Y92264D01*
X191773Y92235D01*
X191769Y92206D01*
Y92202D01*
Y92184D01*
X191773Y92162D01*
X191780Y92133D01*
X191791Y92100D01*
X191809Y92067D01*
X191831Y92031D01*
X191860Y91998D01*
X191864Y91995D01*
X191878Y91987D01*
X191900Y91973D01*
X191929Y91958D01*
X191969Y91944D01*
X192017Y91929D01*
X192071Y91922D01*
X192137Y91918D01*
X192166D01*
X192202Y91922D01*
X192242Y91929D01*
X192293Y91936D01*
X192344Y91951D01*
X192399Y91969D01*
X192453Y91995D01*
X192461Y91998D01*
X192475Y92009D01*
X192501Y92027D01*
X192530Y92053D01*
X192563Y92082D01*
X192599Y92118D01*
X192628Y92162D01*
X192657Y92209D01*
X192661Y92213D01*
X192665Y92228D01*
X192672Y92253D01*
X192683Y92286D01*
X192694Y92329D01*
X192701Y92380D01*
X192705Y92442D01*
X192708Y92515D01*
X192712Y92632D01*
D02*
G37*
G36*
X176787Y93971D02*
Y93967D01*
X176783Y93960D01*
Y93946D01*
X176776Y93931D01*
X176772Y93906D01*
X176765Y93880D01*
X176751Y93818D01*
X176732Y93745D01*
X176707Y93665D01*
X176681Y93578D01*
X176649Y93487D01*
X176375Y92752D01*
X177227D01*
X176965Y93443D01*
Y93447D01*
X176962Y93458D01*
X176954Y93476D01*
X176947Y93498D01*
X176936Y93523D01*
X176925Y93556D01*
X176914Y93593D01*
X176900Y93629D01*
X176871Y93713D01*
X176841Y93800D01*
X176812Y93887D01*
X176787Y93971D01*
D02*
G37*
G36*
X196199Y93327D02*
X196177D01*
X196159Y93323D01*
X196119Y93319D01*
X196064Y93305D01*
X196002Y93283D01*
X195937Y93254D01*
X195875Y93210D01*
X195842Y93181D01*
X195813Y93152D01*
Y93148D01*
X195806Y93145D01*
X195799Y93134D01*
X195788Y93119D01*
X195777Y93101D01*
X195766Y93079D01*
X195751Y93050D01*
X195737Y93021D01*
X195722Y92985D01*
X195708Y92948D01*
X195697Y92905D01*
X195686Y92857D01*
X195675Y92806D01*
X195668Y92752D01*
X195664Y92690D01*
X195660Y92628D01*
Y92624D01*
Y92613D01*
Y92595D01*
X195664Y92570D01*
Y92541D01*
X195668Y92508D01*
X195678Y92431D01*
X195697Y92344D01*
X195726Y92257D01*
X195762Y92173D01*
X195788Y92137D01*
X195813Y92100D01*
X195817D01*
X195820Y92093D01*
X195842Y92075D01*
X195875Y92045D01*
X195919Y92016D01*
X195973Y91984D01*
X196039Y91954D01*
X196115Y91936D01*
X196155Y91933D01*
X196199Y91929D01*
X196221D01*
X196239Y91933D01*
X196279Y91940D01*
X196334Y91951D01*
X196392Y91973D01*
X196457Y92002D01*
X196519Y92045D01*
X196552Y92075D01*
X196581Y92104D01*
X196585Y92107D01*
X196589Y92111D01*
X196596Y92122D01*
X196607Y92137D01*
X196618Y92155D01*
X196632Y92177D01*
X196647Y92206D01*
X196661Y92235D01*
X196676Y92271D01*
X196687Y92311D01*
X196701Y92355D01*
X196712Y92402D01*
X196723Y92457D01*
X196730Y92511D01*
X196738Y92573D01*
Y92639D01*
Y92642D01*
Y92653D01*
Y92672D01*
X196734Y92693D01*
Y92723D01*
X196730Y92755D01*
X196720Y92832D01*
X196701Y92912D01*
X196672Y92999D01*
X196632Y93079D01*
X196610Y93119D01*
X196581Y93152D01*
Y93156D01*
X196574Y93159D01*
X196552Y93181D01*
X196519Y93207D01*
X196476Y93239D01*
X196421Y93272D01*
X196355Y93301D01*
X196283Y93319D01*
X196243Y93323D01*
X196199Y93327D01*
D02*
G37*
G36*
X186804D02*
X186782D01*
X186764Y93323D01*
X186724Y93319D01*
X186670Y93305D01*
X186608Y93283D01*
X186542Y93254D01*
X186480Y93210D01*
X186447Y93181D01*
X186418Y93152D01*
Y93148D01*
X186411Y93145D01*
X186404Y93134D01*
X186393Y93119D01*
X186382Y93101D01*
X186371Y93079D01*
X186356Y93050D01*
X186342Y93021D01*
X186327Y92985D01*
X186313Y92948D01*
X186302Y92905D01*
X186291Y92857D01*
X186280Y92806D01*
X186273Y92752D01*
X186269Y92690D01*
X186265Y92628D01*
Y92624D01*
Y92613D01*
Y92595D01*
X186269Y92570D01*
Y92541D01*
X186273Y92508D01*
X186284Y92431D01*
X186302Y92344D01*
X186331Y92257D01*
X186367Y92173D01*
X186393Y92137D01*
X186418Y92100D01*
X186422D01*
X186426Y92093D01*
X186447Y92075D01*
X186480Y92045D01*
X186524Y92016D01*
X186579Y91984D01*
X186644Y91954D01*
X186720Y91936D01*
X186760Y91933D01*
X186804Y91929D01*
X186826D01*
X186844Y91933D01*
X186884Y91940D01*
X186939Y91951D01*
X186997Y91973D01*
X187063Y92002D01*
X187125Y92045D01*
X187157Y92075D01*
X187186Y92104D01*
X187190Y92107D01*
X187194Y92111D01*
X187201Y92122D01*
X187212Y92137D01*
X187223Y92155D01*
X187237Y92177D01*
X187252Y92206D01*
X187266Y92235D01*
X187281Y92271D01*
X187292Y92311D01*
X187306Y92355D01*
X187317Y92402D01*
X187328Y92457D01*
X187336Y92511D01*
X187343Y92573D01*
Y92639D01*
Y92642D01*
Y92653D01*
Y92672D01*
X187339Y92693D01*
Y92723D01*
X187336Y92755D01*
X187325Y92832D01*
X187306Y92912D01*
X187277Y92999D01*
X187237Y93079D01*
X187215Y93119D01*
X187186Y93152D01*
Y93156D01*
X187179Y93159D01*
X187157Y93181D01*
X187125Y93207D01*
X187081Y93239D01*
X187026Y93272D01*
X186961Y93301D01*
X186888Y93319D01*
X186848Y93323D01*
X186804Y93327D01*
D02*
G37*
%LPD*%
D11*
X140258Y181559D02*
X211045D01*
Y3272D02*
Y181559D01*
X140258Y3272D02*
X211045D01*
X140258D02*
Y181559D01*
D41*
X190491Y199729D02*
G03*
X190491Y196186I0J-1772D01*
G01*
X190491Y219414D02*
G03*
X190491Y215871I0J-1772D01*
G01*
X190490Y196166D02*
X204664Y195398D01*
X190490Y199749D02*
X204664Y200517D01*
X190490Y219434D02*
X204664Y220202D01*
X190490Y215851D02*
X204664Y215084D01*
X204664Y188116D02*
X204664Y227486D01*
X194920Y185753D02*
X198266D01*
X194920D02*
X195215Y188116D01*
X197971D02*
X198266Y185753D01*
X197971Y188116D02*
X204664D01*
X175137D02*
Y227486D01*
Y188116D02*
X195215D01*
X178680Y229848D02*
X182420D01*
X178680D02*
X178877Y227486D01*
X182223D02*
X182420Y229848D01*
X175137Y227486D02*
X178877D01*
X182223D02*
X204664D01*
M02*
