G04*
G04 #@! TF.GenerationSoftware,Altium Limited,Altium Designer,23.1.1 (15)*
G04*
G04 Layer_Color=0*
%FSLAX25Y25*%
%MOIN*%
G70*
G04*
G04 #@! TF.SameCoordinates,7F6F0EF6-604E-4872-8498-859B9B4CD440*
G04*
G04*
G04 #@! TF.FilePolarity,Positive*
G04*
G01*
G75*
%ADD11C,0.00787*%
%ADD41C,0.00394*%
%ADD42C,0.00197*%
D11*
X179461Y159705D02*
X195996D01*
X179461Y147894D02*
Y159705D01*
Y147894D02*
X195996D01*
Y159705D01*
X179264Y133308D02*
X195799D01*
Y145119D01*
X179264D02*
X195799D01*
X179264Y133308D02*
Y145119D01*
X160384Y91822D02*
X175574D01*
X160384Y84145D02*
Y91822D01*
Y84145D02*
X175574D01*
Y91822D01*
X177262Y84145D02*
X192452D01*
Y91822D01*
X177262D02*
X192452D01*
X177262Y84145D02*
Y91822D01*
X170907Y50605D02*
X180750D01*
Y54936D01*
X170907D02*
X180750D01*
X170907Y50605D02*
Y54936D01*
X151390Y44565D02*
X162413D01*
X151390Y40235D02*
Y44565D01*
Y40235D02*
X162413D01*
Y44565D01*
X151291Y38064D02*
X162315D01*
X151291Y33734D02*
Y38064D01*
Y33734D02*
X162315D01*
Y38064D01*
X151193Y30018D02*
X162216D01*
X151193Y25687D02*
Y30018D01*
Y25687D02*
X162216D01*
Y30018D01*
X151090Y18010D02*
X162113D01*
Y22340D01*
X151090D02*
X162113D01*
X151090Y18010D02*
Y22340D01*
X172131Y154533D02*
Y161029D01*
X159532Y154533D02*
X172131D01*
X159532D02*
Y161029D01*
X172131D01*
X180423Y180795D02*
X195777D01*
Y162637D02*
Y180795D01*
X180423Y162637D02*
X195777D01*
X180423D02*
Y180795D01*
X159301Y165909D02*
X171899D01*
X159301D02*
Y179291D01*
X171899D01*
Y165909D02*
Y179291D01*
X190790Y25178D02*
Y29509D01*
X201813D01*
Y25178D02*
Y29509D01*
X190790Y25178D02*
X201813D01*
D41*
X174531Y114000D02*
X178469D01*
X176500Y112031D02*
Y115969D01*
X192248Y96284D02*
Y131717D01*
X160752Y96284D02*
Y131717D01*
Y96284D02*
X192248D01*
X160752Y131717D02*
X192248D01*
X174080Y24506D02*
X178017D01*
X176049Y22537D02*
Y26474D01*
X174057Y60305D02*
X177600D01*
X175828Y58534D02*
Y62077D01*
D42*
X186285Y17616D02*
Y31395D01*
X165813D02*
X186285D01*
X165813Y17616D02*
X186285D01*
X165813D02*
Y31395D01*
X144999Y184965D02*
X176101D01*
X144999D02*
Y230635D01*
X176101D01*
Y184965D02*
Y230635D01*
X160550Y205832D02*
Y209769D01*
X158582Y207800D02*
X162519D01*
X171695Y58140D02*
Y62471D01*
X179962Y58140D02*
Y62471D01*
X171695Y58140D02*
X179962D01*
X171695Y62471D02*
X179962D01*
M02*
