M48
;Layer_Color=9474304
;FILE_FORMAT=2:4
INCH
;TYPE=PLATED
T1F00S00C0.0100
T2F00S00C0.0360
T3F00S00C0.0512
T4F00S00C0.0800
%
T01
X015801Y006711
X016610Y007520
X015801Y009617
X016000Y014220
X016592Y016301
X016923Y017259
X017565Y017260
X018496Y016057
T02
X020565Y002617
Y003617
Y004617
Y005617
Y006617
Y007617
Y008617
Y009617
Y010617
Y011617
Y012617
Y013617
Y014617
Y015617
Y016617
X014565
Y015617
Y014617
Y013617
Y012617
Y011617
Y010617
Y009617
Y008617
Y007617
Y006617
Y005617
Y004617
Y003617
Y002617
T03
X015878Y019796
Y021764
X019167
Y019796
T04
X013410Y000900
X021750
X013450Y022700
X021760
M30
