G04*
G04 #@! TF.GenerationSoftware,Altium Limited,Altium Designer,23.1.1 (15)*
G04*
G04 Layer_Color=32896*
%FSLAX25Y25*%
%MOIN*%
G70*
G04*
G04 #@! TF.SameCoordinates,0BDBEAC4-C0BD-4DD4-8220-68B77C2E4246*
G04*
G04*
G04 #@! TF.FilePolarity,Positive*
G04*
G01*
G75*
%ADD40C,0.00394*%
D40*
X185760Y153800D02*
X189697D01*
X187728Y151831D02*
Y155769D01*
X185563Y139214D02*
X189500D01*
X187531Y137245D02*
Y141182D01*
X166010Y87984D02*
X169947D01*
X167979Y86015D02*
Y89952D01*
X182989Y87984D02*
X186926D01*
X184957Y86015D02*
Y89952D01*
X173860Y52771D02*
X177797D01*
X175828Y50802D02*
Y54739D01*
X154933Y42400D02*
X158870D01*
X156902Y40431D02*
Y44368D01*
X154835Y35899D02*
X158772D01*
X156803Y33931D02*
Y37868D01*
X154736Y27852D02*
X158673D01*
X156705Y25884D02*
Y29821D01*
X154633Y20175D02*
X158570D01*
X156602Y18206D02*
Y22143D01*
X165831Y155813D02*
Y159750D01*
X163863Y157781D02*
X167800D01*
X186131Y171716D02*
X190068D01*
X188100Y169748D02*
Y173685D01*
X163631Y172600D02*
X167569D01*
X165600Y170632D02*
Y174568D01*
X196302Y25375D02*
Y29312D01*
X194333Y27344D02*
X198270D01*
M02*
