G04*
G04 #@! TF.GenerationSoftware,Altium Limited,Altium Designer,23.1.1 (15)*
G04*
G04 Layer_Physical_Order=1*
G04 Layer_Color=255*
%FSLAX25Y25*%
%MOIN*%
G70*
G04*
G04 #@! TF.SameCoordinates,0BDBEAC4-C0BD-4DD4-8220-68B77C2E4246*
G04*
G04*
G04 #@! TF.FilePolarity,Positive*
G04*
G01*
G75*
%ADD12C,0.01000*%
%ADD13R,0.05567X0.05567*%
%ADD14C,0.05567*%
%ADD19C,0.02000*%
%ADD20R,0.07677X0.07677*%
%ADD21C,0.07677*%
%ADD22C,0.06000*%
%ADD23C,0.02000*%
G36*
X223800Y233300D02*
Y3000D01*
X128754D01*
X128401Y3354D01*
X128844Y233600D01*
X223500D01*
X223800Y233300D01*
D02*
G37*
%LPC*%
G36*
X218127Y231000D02*
X217073D01*
X216056Y230727D01*
X215144Y230201D01*
X214399Y229456D01*
X213873Y228544D01*
X213600Y227527D01*
Y226473D01*
X213873Y225456D01*
X214399Y224544D01*
X215144Y223799D01*
X216056Y223273D01*
X217073Y223000D01*
X218127D01*
X219144Y223273D01*
X220056Y223799D01*
X220801Y224544D01*
X221327Y225456D01*
X221600Y226473D01*
Y227527D01*
X221327Y228544D01*
X220801Y229456D01*
X220056Y230201D01*
X219144Y230727D01*
X218127Y231000D01*
D02*
G37*
G36*
X135027D02*
X133973D01*
X132956Y230727D01*
X132044Y230201D01*
X131299Y229456D01*
X130773Y228544D01*
X130500Y227527D01*
Y226473D01*
X130773Y225456D01*
X131299Y224544D01*
X132044Y223799D01*
X132956Y223273D01*
X133973Y223000D01*
X135027D01*
X136044Y223273D01*
X136956Y223799D01*
X137701Y224544D01*
X138227Y225456D01*
X138500Y226473D01*
Y227527D01*
X138227Y228544D01*
X137701Y229456D01*
X136956Y230201D01*
X136044Y230727D01*
X135027Y231000D01*
D02*
G37*
G36*
X192309Y222481D02*
X192172D01*
Y218143D01*
X196510D01*
Y218280D01*
X196181Y219510D01*
X195544Y220614D01*
X194643Y221514D01*
X193539Y222151D01*
X192309Y222481D01*
D02*
G37*
G36*
X191172D02*
X191035D01*
X189804Y222151D01*
X188701Y221514D01*
X187800Y220614D01*
X187163Y219510D01*
X186833Y218280D01*
Y218143D01*
X191172D01*
Y222481D01*
D02*
G37*
G36*
X196510Y217143D02*
X192172D01*
Y212804D01*
X192309D01*
X193539Y213134D01*
X194643Y213771D01*
X195544Y214671D01*
X196181Y215775D01*
X196510Y217005D01*
Y217143D01*
D02*
G37*
G36*
X191172D02*
X186833D01*
Y217005D01*
X187163Y215775D01*
X187800Y214671D01*
X188701Y213771D01*
X189804Y213134D01*
X191035Y212804D01*
X191172D01*
Y217143D01*
D02*
G37*
G36*
X159415Y222481D02*
X158141D01*
X156911Y222151D01*
X155807Y221514D01*
X154907Y220614D01*
X154270Y219510D01*
X153940Y218280D01*
Y217005D01*
X154270Y215775D01*
X154907Y214671D01*
X155807Y213771D01*
X156911Y213134D01*
X158141Y212804D01*
X159415D01*
X160646Y213134D01*
X161749Y213771D01*
X162650Y214671D01*
X163287Y215775D01*
X163617Y217005D01*
Y218280D01*
X163287Y219510D01*
X162650Y220614D01*
X161749Y221514D01*
X160646Y222151D01*
X159415Y222481D01*
D02*
G37*
G36*
X196510Y202796D02*
X186833D01*
Y193119D01*
X196510D01*
Y202796D01*
D02*
G37*
G36*
X163617D02*
X153940D01*
Y193119D01*
X163617D01*
Y202796D01*
D02*
G37*
G36*
X175645Y174633D02*
X169232D01*
X169035Y174594D01*
X168834D01*
X168649Y174517D01*
X168452Y174478D01*
X168285Y174366D01*
X168099Y174289D01*
X167957Y174147D01*
X167790Y174036D01*
X167679Y173869D01*
X167537Y173727D01*
X167460Y173541D01*
X167348Y173374D01*
X167309Y173177D01*
X167232Y172992D01*
Y172791D01*
X167193Y172594D01*
X167232Y172397D01*
Y172196D01*
X167309Y172010D01*
X167348Y171813D01*
X167460Y171646D01*
X167537Y171461D01*
X167679Y171319D01*
X167790Y171152D01*
X167957Y171040D01*
X168099Y170898D01*
X168285Y170821D01*
X168452Y170710D01*
X168649Y170671D01*
X168834Y170594D01*
X169035D01*
X169232Y170554D01*
X175645D01*
X175873Y170600D01*
X176049D01*
X176211Y170667D01*
X176425Y170710D01*
X176607Y170831D01*
X176784Y170904D01*
X176920Y171040D01*
X177087Y171152D01*
X177199Y171319D01*
X177347Y171467D01*
X177427Y171661D01*
X177529Y171813D01*
X177565Y171993D01*
X177651Y172202D01*
Y172428D01*
X177684Y172594D01*
X177651Y172759D01*
Y172998D01*
X177560Y173218D01*
X177529Y173374D01*
X177441Y173506D01*
X177347Y173733D01*
X177173Y173906D01*
X177087Y174036D01*
X176957Y174122D01*
X176784Y174295D01*
X176558Y174389D01*
X176425Y174478D01*
X176269Y174509D01*
X176049Y174600D01*
X175811D01*
X175645Y174633D01*
D02*
G37*
G36*
X206149Y169949D02*
X205153D01*
X204191Y169691D01*
X203328Y169193D01*
X202624Y168488D01*
X202126Y167626D01*
X201868Y166663D01*
Y165667D01*
X202126Y164705D01*
X202624Y163842D01*
X203328Y163138D01*
X204191Y162640D01*
X205153Y162382D01*
X206149D01*
X207112Y162640D01*
X207974Y163138D01*
X208679Y163842D01*
X209177Y164705D01*
X209435Y165667D01*
Y166663D01*
X209177Y167626D01*
X208679Y168488D01*
X207974Y169193D01*
X207112Y169691D01*
X206149Y169949D01*
D02*
G37*
G36*
X149435D02*
X141868D01*
Y162382D01*
X149435D01*
Y169949D01*
D02*
G37*
G36*
X182519Y165047D02*
X165923D01*
X165726Y165008D01*
X165525D01*
X165340Y164931D01*
X165143Y164892D01*
X164976Y164781D01*
X164790Y164704D01*
X164648Y164562D01*
X164481Y164450D01*
X164370Y164283D01*
X164228Y164141D01*
X164151Y163956D01*
X164039Y163789D01*
X164000Y163592D01*
X163923Y163406D01*
Y163205D01*
X163884Y163008D01*
X163923Y162811D01*
Y162610D01*
X164000Y162425D01*
X164039Y162228D01*
X164151Y162061D01*
X164228Y161875D01*
X164370Y161733D01*
X164481Y161566D01*
X164648Y161455D01*
X164790Y161313D01*
X164976Y161236D01*
X165143Y161124D01*
X165340Y161085D01*
X165525Y161008D01*
X165726D01*
X165923Y160969D01*
X181674D01*
X183515Y159128D01*
X183682Y159016D01*
X183824Y158874D01*
X184010Y158798D01*
X184177Y158686D01*
X184374Y158647D01*
X184559Y158570D01*
X184760D01*
X184957Y158531D01*
X185154Y158570D01*
X185355D01*
X185540Y158647D01*
X185737Y158686D01*
X185904Y158798D01*
X186090Y158874D01*
X186232Y159016D01*
X186399Y159128D01*
X186511Y159295D01*
X186653Y159437D01*
X186730Y159623D01*
X186841Y159790D01*
X186880Y159986D01*
X186957Y160172D01*
Y160373D01*
X186996Y160570D01*
X186957Y160767D01*
Y160968D01*
X186880Y161153D01*
X186841Y161350D01*
X186730Y161517D01*
X186653Y161703D01*
X186511Y161845D01*
X186399Y162012D01*
X183961Y164450D01*
X183299Y164892D01*
X182519Y165047D01*
D02*
G37*
G36*
X206151Y159948D02*
Y156665D01*
X209434D01*
X209177Y157626D01*
X208679Y158488D01*
X207974Y159193D01*
X207112Y159691D01*
X206151Y159948D01*
D02*
G37*
G36*
X205151D02*
X204191Y159691D01*
X203328Y159193D01*
X202624Y158488D01*
X202126Y157626D01*
X201868Y156665D01*
X205151D01*
Y159948D01*
D02*
G37*
G36*
X209434Y155665D02*
X206151D01*
Y152382D01*
X207112Y152640D01*
X207974Y153138D01*
X208679Y153842D01*
X209177Y154705D01*
X209434Y155665D01*
D02*
G37*
G36*
X205151D02*
X201868D01*
X202126Y154705D01*
X202624Y153842D01*
X203328Y153138D01*
X204191Y152640D01*
X205151Y152382D01*
Y155665D01*
D02*
G37*
G36*
X146149Y159949D02*
X145153D01*
X144191Y159691D01*
X143328Y159193D01*
X142624Y158488D01*
X142126Y157626D01*
X141868Y156663D01*
Y155667D01*
X142126Y154705D01*
X142624Y153842D01*
X143328Y153138D01*
X144191Y152640D01*
X145153Y152382D01*
X146149D01*
X147112Y152640D01*
X147974Y153138D01*
X148679Y153842D01*
X149177Y154705D01*
X149435Y155667D01*
Y156663D01*
X149177Y157626D01*
X148679Y158488D01*
X147974Y159193D01*
X147112Y159691D01*
X146149Y159949D01*
D02*
G37*
G36*
X206149Y149949D02*
X205153D01*
X204191Y149691D01*
X203328Y149193D01*
X202624Y148488D01*
X202126Y147626D01*
X201868Y146663D01*
Y145667D01*
X202126Y144705D01*
X202624Y143842D01*
X203328Y143138D01*
X204191Y142640D01*
X205153Y142382D01*
X206149D01*
X207112Y142640D01*
X207974Y143138D01*
X208679Y143842D01*
X209177Y144705D01*
X209435Y145667D01*
Y146663D01*
X209177Y147626D01*
X208679Y148488D01*
X207974Y149193D01*
X207112Y149691D01*
X206149Y149949D01*
D02*
G37*
G36*
X146149D02*
X145153D01*
X144191Y149691D01*
X143328Y149193D01*
X142624Y148488D01*
X142126Y147626D01*
X141868Y146663D01*
Y145667D01*
X142126Y144705D01*
X142624Y143842D01*
X143328Y143138D01*
X144191Y142640D01*
X145153Y142382D01*
X146149D01*
X147112Y142640D01*
X147974Y143138D01*
X148679Y143842D01*
X149177Y144705D01*
X149435Y145667D01*
Y146663D01*
X149177Y147626D01*
X148679Y148488D01*
X147974Y149193D01*
X147112Y149691D01*
X146149Y149949D01*
D02*
G37*
G36*
X146151Y139948D02*
Y136665D01*
X149434D01*
X149177Y137626D01*
X148679Y138488D01*
X147974Y139193D01*
X147112Y139691D01*
X146151Y139948D01*
D02*
G37*
G36*
X145151D02*
X144191Y139691D01*
X143328Y139193D01*
X142624Y138488D01*
X142126Y137626D01*
X141868Y136665D01*
X145151D01*
Y139948D01*
D02*
G37*
G36*
X149434Y135665D02*
X146151D01*
Y132382D01*
X147112Y132640D01*
X147974Y133138D01*
X148679Y133842D01*
X149177Y134705D01*
X149434Y135665D01*
D02*
G37*
G36*
X145151D02*
X141868D01*
X142126Y134705D01*
X142624Y133842D01*
X143328Y133138D01*
X144191Y132640D01*
X145151Y132382D01*
Y135665D01*
D02*
G37*
G36*
X206149Y139949D02*
X205153D01*
X204191Y139691D01*
X203328Y139193D01*
X202624Y138488D01*
X202126Y137626D01*
X201868Y136663D01*
Y135667D01*
X202126Y134705D01*
X202624Y133842D01*
X203328Y133138D01*
X204191Y132640D01*
X205153Y132382D01*
X206149D01*
X207112Y132640D01*
X207974Y133138D01*
X208679Y133842D01*
X209177Y134705D01*
X209435Y135667D01*
Y136663D01*
X209177Y137626D01*
X208679Y138488D01*
X207974Y139193D01*
X207112Y139691D01*
X206149Y139949D01*
D02*
G37*
G36*
Y129949D02*
X205153D01*
X204191Y129691D01*
X203328Y129193D01*
X202624Y128488D01*
X202126Y127626D01*
X201868Y126663D01*
Y125667D01*
X202126Y124705D01*
X202624Y123842D01*
X203328Y123138D01*
X204191Y122640D01*
X205153Y122382D01*
X206149D01*
X207112Y122640D01*
X207974Y123138D01*
X208679Y123842D01*
X209177Y124705D01*
X209435Y125667D01*
Y126663D01*
X209177Y127626D01*
X208679Y128488D01*
X207974Y129193D01*
X207112Y129691D01*
X206149Y129949D01*
D02*
G37*
G36*
X146149D02*
X145153D01*
X144191Y129691D01*
X143328Y129193D01*
X142624Y128488D01*
X142126Y127626D01*
X141868Y126663D01*
Y125667D01*
X142126Y124705D01*
X142624Y123842D01*
X143328Y123138D01*
X144191Y122640D01*
X145153Y122382D01*
X146149D01*
X147112Y122640D01*
X147974Y123138D01*
X148679Y123842D01*
X149177Y124705D01*
X149435Y125667D01*
Y126663D01*
X149177Y127626D01*
X148679Y128488D01*
X147974Y129193D01*
X147112Y129691D01*
X146149Y129949D01*
D02*
G37*
G36*
X206149Y119949D02*
X205153D01*
X204191Y119691D01*
X203328Y119193D01*
X202624Y118488D01*
X202126Y117626D01*
X201868Y116663D01*
Y115667D01*
X202126Y114705D01*
X202624Y113842D01*
X203328Y113138D01*
X204191Y112640D01*
X205153Y112382D01*
X206149D01*
X207112Y112640D01*
X207974Y113138D01*
X208679Y113842D01*
X209177Y114705D01*
X209435Y115667D01*
Y116663D01*
X209177Y117626D01*
X208679Y118488D01*
X207974Y119193D01*
X207112Y119691D01*
X206149Y119949D01*
D02*
G37*
G36*
X146149D02*
X145153D01*
X144191Y119691D01*
X143328Y119193D01*
X142624Y118488D01*
X142126Y117626D01*
X141868Y116663D01*
Y115667D01*
X142126Y114705D01*
X142624Y113842D01*
X143328Y113138D01*
X144191Y112640D01*
X145153Y112382D01*
X146149D01*
X147112Y112640D01*
X147974Y113138D01*
X148679Y113842D01*
X149177Y114705D01*
X149435Y115667D01*
Y116663D01*
X149177Y117626D01*
X148679Y118488D01*
X147974Y119193D01*
X147112Y119691D01*
X146149Y119949D01*
D02*
G37*
G36*
X206149Y109949D02*
X205153D01*
X204191Y109691D01*
X203328Y109193D01*
X202624Y108488D01*
X202126Y107626D01*
X201868Y106663D01*
Y105667D01*
X202126Y104705D01*
X202624Y103842D01*
X203328Y103138D01*
X204191Y102640D01*
X205153Y102382D01*
X206149D01*
X207112Y102640D01*
X207974Y103138D01*
X208679Y103842D01*
X209177Y104705D01*
X209435Y105667D01*
Y106663D01*
X209177Y107626D01*
X208679Y108488D01*
X207974Y109193D01*
X207112Y109691D01*
X206149Y109949D01*
D02*
G37*
G36*
X146149D02*
X145153D01*
X144191Y109691D01*
X143328Y109193D01*
X142624Y108488D01*
X142126Y107626D01*
X141868Y106663D01*
Y105667D01*
X142126Y104705D01*
X142624Y103842D01*
X143328Y103138D01*
X144191Y102640D01*
X145153Y102382D01*
X146149D01*
X147112Y102640D01*
X147974Y103138D01*
X148679Y103842D01*
X149177Y104705D01*
X149435Y105667D01*
Y106663D01*
X149177Y107626D01*
X148679Y108488D01*
X147974Y109193D01*
X147112Y109691D01*
X146149Y109949D01*
D02*
G37*
G36*
X160000Y144239D02*
X159803Y144200D01*
X159602D01*
X159417Y144123D01*
X159220Y144084D01*
X159053Y143972D01*
X158867Y143895D01*
X158725Y143754D01*
X158558Y143642D01*
X152113Y137197D01*
X151671Y136536D01*
X151516Y135755D01*
Y100619D01*
X151671Y99839D01*
X152113Y99177D01*
X156567Y94723D01*
X156734Y94612D01*
X156876Y94470D01*
X157062Y94393D01*
X157229Y94281D01*
X157425Y94242D01*
X157611Y94165D01*
X157812D01*
X158009Y94126D01*
X158206Y94165D01*
X158407D01*
X158592Y94242D01*
X158789Y94281D01*
X158956Y94393D01*
X159142Y94470D01*
X159284Y94612D01*
X159451Y94723D01*
X159562Y94890D01*
X159704Y95032D01*
X159781Y95218D01*
X159893Y95385D01*
X159932Y95582D01*
X160009Y95767D01*
Y95968D01*
X160048Y96165D01*
X160009Y96362D01*
Y96563D01*
X159932Y96749D01*
X159893Y96946D01*
X159781Y97113D01*
X159704Y97298D01*
X159562Y97440D01*
X159451Y97607D01*
X155594Y101464D01*
Y134910D01*
X161442Y140758D01*
X161554Y140925D01*
X161696Y141067D01*
X161772Y141253D01*
X161884Y141420D01*
X161923Y141617D01*
X162000Y141802D01*
Y142003D01*
X162039Y142200D01*
X162000Y142397D01*
Y142598D01*
X161923Y142783D01*
X161884Y142980D01*
X161772Y143147D01*
X161696Y143333D01*
X161554Y143475D01*
X161442Y143642D01*
X161275Y143754D01*
X161133Y143895D01*
X160947Y143972D01*
X160780Y144084D01*
X160583Y144123D01*
X160398Y144200D01*
X160197D01*
X160000Y144239D01*
D02*
G37*
G36*
X206149Y99949D02*
X205153D01*
X204191Y99691D01*
X203328Y99193D01*
X202624Y98488D01*
X202126Y97626D01*
X201868Y96663D01*
Y95667D01*
X202126Y94705D01*
X202624Y93842D01*
X203328Y93138D01*
X204191Y92640D01*
X205153Y92382D01*
X206149D01*
X207112Y92640D01*
X207974Y93138D01*
X208679Y93842D01*
X209177Y94705D01*
X209435Y95667D01*
Y96663D01*
X209177Y97626D01*
X208679Y98488D01*
X207974Y99193D01*
X207112Y99691D01*
X206149Y99949D01*
D02*
G37*
G36*
X146149D02*
X145153D01*
X144191Y99691D01*
X143328Y99193D01*
X142624Y98488D01*
X142126Y97626D01*
X141868Y96663D01*
Y95667D01*
X142126Y94705D01*
X142624Y93842D01*
X143328Y93138D01*
X144191Y92640D01*
X145153Y92382D01*
X146149D01*
X147112Y92640D01*
X147974Y93138D01*
X148679Y93842D01*
X149177Y94705D01*
X149435Y95667D01*
Y96663D01*
X149177Y97626D01*
X148679Y98488D01*
X147974Y99193D01*
X147112Y99691D01*
X146149Y99949D01*
D02*
G37*
G36*
X206149Y89949D02*
X205153D01*
X204191Y89691D01*
X203328Y89193D01*
X202624Y88489D01*
X202126Y87626D01*
X201868Y86664D01*
Y85667D01*
X202126Y84705D01*
X202624Y83842D01*
X203328Y83138D01*
X204191Y82640D01*
X205153Y82382D01*
X206149D01*
X207112Y82640D01*
X207974Y83138D01*
X208679Y83842D01*
X209177Y84705D01*
X209435Y85667D01*
Y86664D01*
X209177Y87626D01*
X208679Y88489D01*
X207974Y89193D01*
X207112Y89691D01*
X206149Y89949D01*
D02*
G37*
G36*
X146149D02*
X145153D01*
X144191Y89691D01*
X143328Y89193D01*
X142624Y88489D01*
X142126Y87626D01*
X141868Y86664D01*
Y85667D01*
X142126Y84705D01*
X142624Y83842D01*
X143328Y83138D01*
X144191Y82640D01*
X145153Y82382D01*
X146149D01*
X147112Y82640D01*
X147974Y83138D01*
X148679Y83842D01*
X149177Y84705D01*
X149435Y85667D01*
Y86664D01*
X149177Y87626D01*
X148679Y88489D01*
X147974Y89193D01*
X147112Y89691D01*
X146149Y89949D01*
D02*
G37*
G36*
X206149Y79949D02*
X205153D01*
X204191Y79691D01*
X203328Y79193D01*
X202624Y78488D01*
X202126Y77626D01*
X201868Y76664D01*
Y75667D01*
X202126Y74705D01*
X202624Y73842D01*
X203328Y73138D01*
X204191Y72640D01*
X205153Y72382D01*
X206149D01*
X207112Y72640D01*
X207974Y73138D01*
X208679Y73842D01*
X209177Y74705D01*
X209435Y75667D01*
Y76664D01*
X209177Y77626D01*
X208679Y78488D01*
X207974Y79193D01*
X207112Y79691D01*
X206149Y79949D01*
D02*
G37*
G36*
X146149D02*
X145153D01*
X144191Y79691D01*
X143328Y79193D01*
X142624Y78488D01*
X142126Y77626D01*
X141868Y76664D01*
Y75667D01*
X142126Y74705D01*
X142624Y73842D01*
X143328Y73138D01*
X144191Y72640D01*
X145153Y72382D01*
X146149D01*
X147112Y72640D01*
X147974Y73138D01*
X148679Y73842D01*
X149177Y74705D01*
X149435Y75667D01*
Y76664D01*
X149177Y77626D01*
X148679Y78488D01*
X147974Y79193D01*
X147112Y79691D01*
X146149Y79949D01*
D02*
G37*
G36*
X166100Y77239D02*
X165903Y77200D01*
X165702D01*
X165517Y77123D01*
X165320Y77084D01*
X165153Y76972D01*
X164967Y76895D01*
X164825Y76753D01*
X164658Y76642D01*
X164654Y76636D01*
X156567Y68549D01*
X156455Y68382D01*
X156313Y68240D01*
X156237Y68054D01*
X156125Y67887D01*
X156086Y67690D01*
X156009Y67505D01*
Y67304D01*
X155970Y67107D01*
X156009Y66910D01*
Y66709D01*
X156086Y66524D01*
X156125Y66327D01*
X156237Y66160D01*
X156313Y65974D01*
X156455Y65832D01*
X156567Y65665D01*
X156734Y65553D01*
X156876Y65412D01*
X157062Y65335D01*
X157229Y65223D01*
X157425Y65184D01*
X157611Y65107D01*
X157812D01*
X158009Y65068D01*
X158206Y65107D01*
X158407D01*
X158592Y65184D01*
X158789Y65223D01*
X158956Y65335D01*
X159142Y65412D01*
X159284Y65553D01*
X159451Y65665D01*
X167542Y73756D01*
X167657Y73929D01*
X167796Y74067D01*
X167870Y74248D01*
X167984Y74418D01*
X168024Y74618D01*
X168100Y74802D01*
Y75001D01*
X168139Y75198D01*
Y75200D01*
X168100Y75397D01*
Y75598D01*
X168023Y75783D01*
X167984Y75980D01*
X167872Y76147D01*
X167796Y76333D01*
X167654Y76475D01*
X167542Y76642D01*
X167375Y76753D01*
X167233Y76895D01*
X167047Y76972D01*
X166880Y77084D01*
X166683Y77123D01*
X166498Y77200D01*
X166297D01*
X166100Y77239D01*
D02*
G37*
G36*
X206149Y69949D02*
X205153D01*
X204191Y69691D01*
X203328Y69193D01*
X202624Y68489D01*
X202126Y67626D01*
X201868Y66663D01*
Y65667D01*
X202126Y64705D01*
X202624Y63842D01*
X203328Y63138D01*
X204191Y62640D01*
X205153Y62382D01*
X206149D01*
X207112Y62640D01*
X207974Y63138D01*
X208679Y63842D01*
X209177Y64705D01*
X209435Y65667D01*
Y66663D01*
X209177Y67626D01*
X208679Y68489D01*
X207974Y69193D01*
X207112Y69691D01*
X206149Y69949D01*
D02*
G37*
G36*
X146149D02*
X145153D01*
X144191Y69691D01*
X143328Y69193D01*
X142624Y68489D01*
X142126Y67626D01*
X141868Y66663D01*
Y65667D01*
X142126Y64705D01*
X142624Y63842D01*
X143328Y63138D01*
X144191Y62640D01*
X145153Y62382D01*
X146149D01*
X147112Y62640D01*
X147974Y63138D01*
X148679Y63842D01*
X149177Y64705D01*
X149435Y65667D01*
Y66663D01*
X149177Y67626D01*
X148679Y68489D01*
X147974Y69193D01*
X147112Y69691D01*
X146149Y69949D01*
D02*
G37*
G36*
X206149Y59949D02*
X205153D01*
X204191Y59691D01*
X203328Y59193D01*
X202624Y58489D01*
X202126Y57626D01*
X201868Y56664D01*
Y55667D01*
X202126Y54705D01*
X202624Y53842D01*
X203328Y53138D01*
X204191Y52640D01*
X205153Y52382D01*
X206149D01*
X207112Y52640D01*
X207974Y53138D01*
X208679Y53842D01*
X209177Y54705D01*
X209435Y55667D01*
Y56664D01*
X209177Y57626D01*
X208679Y58489D01*
X207974Y59193D01*
X207112Y59691D01*
X206149Y59949D01*
D02*
G37*
G36*
X146149D02*
X145153D01*
X144191Y59691D01*
X143328Y59193D01*
X142624Y58489D01*
X142126Y57626D01*
X141868Y56664D01*
Y55667D01*
X142126Y54705D01*
X142624Y53842D01*
X143328Y53138D01*
X144191Y52640D01*
X145153Y52382D01*
X146149D01*
X147112Y52640D01*
X147974Y53138D01*
X148679Y53842D01*
X149177Y54705D01*
X149435Y55667D01*
Y56664D01*
X149177Y57626D01*
X148679Y58489D01*
X147974Y59193D01*
X147112Y59691D01*
X146149Y59949D01*
D02*
G37*
G36*
X206149Y49949D02*
X205153D01*
X204191Y49691D01*
X203328Y49193D01*
X202624Y48489D01*
X202126Y47626D01*
X201868Y46663D01*
Y45667D01*
X202126Y44705D01*
X202624Y43842D01*
X203328Y43138D01*
X204191Y42640D01*
X205153Y42382D01*
X206149D01*
X207112Y42640D01*
X207974Y43138D01*
X208679Y43842D01*
X209177Y44705D01*
X209435Y45667D01*
Y46663D01*
X209177Y47626D01*
X208679Y48489D01*
X207974Y49193D01*
X207112Y49691D01*
X206149Y49949D01*
D02*
G37*
G36*
X146149D02*
X145153D01*
X144191Y49691D01*
X143328Y49193D01*
X142624Y48489D01*
X142126Y47626D01*
X141868Y46663D01*
Y45667D01*
X142126Y44705D01*
X142624Y43842D01*
X143328Y43138D01*
X144191Y42640D01*
X145153Y42382D01*
X146149D01*
X147112Y42640D01*
X147974Y43138D01*
X148679Y43842D01*
X149177Y44705D01*
X149435Y45667D01*
Y46663D01*
X149177Y47626D01*
X148679Y48489D01*
X147974Y49193D01*
X147112Y49691D01*
X146149Y49949D01*
D02*
G37*
G36*
X206149Y39949D02*
X205153D01*
X204191Y39691D01*
X203328Y39193D01*
X202624Y38489D01*
X202126Y37626D01*
X201868Y36663D01*
Y35667D01*
X202126Y34705D01*
X202624Y33842D01*
X203328Y33138D01*
X204191Y32640D01*
X205153Y32382D01*
X206149D01*
X207112Y32640D01*
X207974Y33138D01*
X208679Y33842D01*
X209177Y34705D01*
X209435Y35667D01*
Y36663D01*
X209177Y37626D01*
X208679Y38489D01*
X207974Y39193D01*
X207112Y39691D01*
X206149Y39949D01*
D02*
G37*
G36*
X146149D02*
X145153D01*
X144191Y39691D01*
X143328Y39193D01*
X142624Y38489D01*
X142126Y37626D01*
X141868Y36663D01*
Y35667D01*
X142126Y34705D01*
X142624Y33842D01*
X143328Y33138D01*
X144191Y32640D01*
X145153Y32382D01*
X146149D01*
X147112Y32640D01*
X147974Y33138D01*
X148679Y33842D01*
X149177Y34705D01*
X149435Y35667D01*
Y36663D01*
X149177Y37626D01*
X148679Y38489D01*
X147974Y39193D01*
X147112Y39691D01*
X146149Y39949D01*
D02*
G37*
G36*
X206149Y29949D02*
X205153D01*
X204191Y29691D01*
X203328Y29193D01*
X202624Y28488D01*
X202126Y27626D01*
X201868Y26664D01*
Y25667D01*
X202126Y24705D01*
X202624Y23842D01*
X203328Y23138D01*
X204191Y22640D01*
X205153Y22382D01*
X206149D01*
X207112Y22640D01*
X207974Y23138D01*
X208679Y23842D01*
X209177Y24705D01*
X209435Y25667D01*
Y26664D01*
X209177Y27626D01*
X208679Y28488D01*
X207974Y29193D01*
X207112Y29691D01*
X206149Y29949D01*
D02*
G37*
G36*
X146149D02*
X145153D01*
X144191Y29691D01*
X143328Y29193D01*
X142624Y28488D01*
X142126Y27626D01*
X141868Y26664D01*
Y25667D01*
X142126Y24705D01*
X142624Y23842D01*
X143328Y23138D01*
X144191Y22640D01*
X145153Y22382D01*
X146149D01*
X147112Y22640D01*
X147974Y23138D01*
X148679Y23842D01*
X149177Y24705D01*
X149435Y25667D01*
Y26664D01*
X149177Y27626D01*
X148679Y28488D01*
X147974Y29193D01*
X147112Y29691D01*
X146149Y29949D01*
D02*
G37*
G36*
X218027Y13000D02*
X216973D01*
X215956Y12727D01*
X215044Y12201D01*
X214299Y11456D01*
X213773Y10544D01*
X213500Y9527D01*
Y8473D01*
X213773Y7456D01*
X214299Y6544D01*
X215044Y5799D01*
X215956Y5273D01*
X216973Y5000D01*
X218027D01*
X219044Y5273D01*
X219956Y5799D01*
X220701Y6544D01*
X221227Y7456D01*
X221500Y8473D01*
Y9527D01*
X221227Y10544D01*
X220701Y11456D01*
X219956Y12201D01*
X219044Y12727D01*
X218027Y13000D01*
D02*
G37*
G36*
X134627D02*
X133573D01*
X132556Y12727D01*
X131644Y12201D01*
X130899Y11456D01*
X130373Y10544D01*
X130100Y9527D01*
Y8473D01*
X130373Y7456D01*
X130899Y6544D01*
X131644Y5799D01*
X132556Y5273D01*
X133573Y5000D01*
X134627D01*
X135644Y5273D01*
X136556Y5799D01*
X137301Y6544D01*
X137827Y7456D01*
X138100Y8473D01*
Y9527D01*
X137827Y10544D01*
X137301Y11456D01*
X136556Y12201D01*
X135644Y12727D01*
X134627Y13000D01*
D02*
G37*
%LPD*%
D12*
X175645Y172594D02*
X175651Y172600D01*
D13*
X145651Y166165D02*
D03*
D14*
Y156165D02*
D03*
Y146165D02*
D03*
Y136165D02*
D03*
Y126165D02*
D03*
Y116165D02*
D03*
Y106165D02*
D03*
Y96165D02*
D03*
Y86165D02*
D03*
Y76165D02*
D03*
Y66165D02*
D03*
Y56165D02*
D03*
Y46165D02*
D03*
Y36165D02*
D03*
Y26165D02*
D03*
X205651D02*
D03*
Y36165D02*
D03*
Y46165D02*
D03*
Y56165D02*
D03*
Y66165D02*
D03*
Y76165D02*
D03*
Y86165D02*
D03*
Y96165D02*
D03*
Y106165D02*
D03*
Y116165D02*
D03*
Y126165D02*
D03*
Y136165D02*
D03*
Y146165D02*
D03*
Y156165D02*
D03*
Y166165D02*
D03*
D19*
X158009Y67107D02*
X166100Y75198D01*
Y75200D01*
X153555Y100619D02*
X158009Y96165D01*
X153555Y100619D02*
Y135755D01*
X160000Y142200D01*
X169232Y172594D02*
X175645D01*
X165923Y163008D02*
X182519D01*
X184957Y160570D01*
D20*
X158778Y197958D02*
D03*
X191672D02*
D03*
D21*
X158778Y217642D02*
D03*
X191672D02*
D03*
D22*
X134500Y227000D02*
D03*
X217600D02*
D03*
X134100Y9000D02*
D03*
X217500D02*
D03*
D23*
X166100Y75200D02*
D03*
X158009Y96165D02*
D03*
Y67107D02*
D03*
X160000Y142200D02*
D03*
X175651Y172600D02*
D03*
X169232Y172594D02*
D03*
X165923Y163008D02*
D03*
X184957Y160570D02*
D03*
M02*
